<svg enable-background="new 0 0 45 45" viewBox="0 0 45 45" xmlns="http://www.w3.org/2000/svg"><path d="m40.81 12.35h-5.23s-1.46 0-2.62-2.82c-.52-1.46-1.15-2.82-2.62-2.82h-10.46c-1.46 0-2.09 1.36-2.62 2.82-1.05 2.82-2.62 2.82-2.62 2.82h-2.62c0-1.57-1.15-2.82-2.62-2.82h-2.59c-1.46 0-2.62 1.26-2.62 2.82-1.46 0-2.62 1.26-2.62 2.82v22.28c0 1.57 1.15 2.82 2.62 2.82h36.61c1.46 0 2.62-1.26 2.62-2.82v-22.27c0-1.57-1.15-2.83-2.61-2.83z" fill="#231f20" opacity=".2"/><path d="m40.81 9.95h-5.23s-1.46.31-2.62-2.41c-.52-1.46-1.15-2.82-2.62-2.82h-10.46c-1.46 0-2.09 1.36-2.62 2.82-1.05 2.82-2.62 2.41-2.62 2.41h-2.62c0-1.57-1.15-2.09-2.62-2.09h-2.59c-1.46 0-2.62.52-2.62 2.09-1.46 0-2.62 1.57-2.62 3.14v22.28c0 1.57 1.15 2.82 2.62 2.82h36.61c1.46 0 2.62-1.26 2.62-2.82v-22.28c0-1.57-1.15-3.14-2.61-3.14z" fill="#4f5d73"/><circle cx="24.59" cy="23.55" fill="#77b3d4" r="9.41"/><path d="m24.59 37.14c-6.38 0-11.51-5.13-11.51-11.51s5.13-11.51 11.51-11.51 11.51 5.14 11.51 11.52-5.13 11.5-11.51 11.5zm0-18.82c-4.08 0-7.32 3.24-7.32 7.32s3.24 7.32 7.32 7.32 7.32-3.24 7.32-7.32-3.24-7.32-7.32-7.32z" fill="#231f20" opacity=".2"/><path d="m24.59 34.53c-6.07 0-10.98-4.92-10.98-10.98s4.92-10.98 10.98-10.98 10.98 4.92 10.98 10.98-4.91 10.98-10.98 10.98zm0-18.83c-4.29 0-7.85 3.56-7.85 7.85s3.56 7.85 7.85 7.85 7.85-3.56 7.85-7.85-3.56-7.85-7.85-7.85z" fill="#fff"/></svg>