<svg xmlns="http://www.w3.org/2000/svg" width="200.337" height="196.127" viewBox="0 0 200.337 196.127"><g transform="translate(-107 -109)"><g transform="translate(-49 -23.578)"><path d="M99.8,222.481V52.068H234.842V212.835a9.645,9.645,0,0,1-9.646,9.646Z" transform="translate(121.495 106.224)" fill="#bedb39"/><path d="M146.73,51.445a11.254,11.254,0,0,1-11.254-11.254V28.938h6.431V40.192a4.823,4.823,0,0,0,9.646,0h0V16.077a9.646,9.646,0,0,0-19.292,0v3.215H125.83V16.077a16.077,16.077,0,1,1,32.154,0V40.192A11.253,11.253,0,0,1,146.73,51.445Z" transform="translate(105.108 139)" fill="#daeb91"/><g transform="translate(288.814 251.537)"><path d="M282.034,338.441h54.661v6.431H282.034Z" transform="translate(-282.034 -325.58)" fill="#e2efa7"/><path d="M282.034,373.153h54.661v6.431H282.034Z" transform="translate(-282.034 -347.43)" fill="#e2efa7"/><path d="M282.034,407.864h41.8v6.431h-41.8Z" transform="translate(-282.034 -369.28)" fill="#e2efa7"/><path d="M342.78,303.729h32.154v6.431H342.78Z" transform="translate(-320.273 -303.729)" fill="#e2efa7"/></g><path d="M22.507,0A22.507,22.507,0,1,1,0,22.507,22.507,22.507,0,0,1,22.507,0Z" transform="translate(295.245 184.015)" fill="#e2efa7"/><path d="M134.508,182.237h6.431V207.96h-6.431Z" transform="translate(99.645 24.285)" fill="#d3e77b"/><path d="M169.22,199.593h6.431v19.292H169.22Z" transform="translate(77.795 13.36)" fill="#daeb91"/><path d="M203.932,164.881h6.431v32.154h-6.431Z" transform="translate(55.944 35.21)" fill="#d3e77b"/><path d="M238.644,190.915h6.431v22.507h-6.431Z" transform="translate(34.093 18.822)" fill="#daeb91"/><path d="M143.186,312.407H181.77v38.584H143.186Z" transform="translate(94.182 -57.655)" fill="#e9f3bd"/><path d="M308.068,303.729H314.5v6.431h-6.431Z" transform="translate(-9.608 -52.192)" fill="#e9f3bd"/><path d="M380.251,133.942a22.5,22.5,0,0,0-20.115-12.45V144Z" transform="translate(-42.384 62.523)" fill="#fff"/><g transform="translate(202 184.015)"><path d="M321.892,121.492a22.506,22.506,0,0,0-15.916,38.423L321.892,144Z" transform="translate(-206.14 -121.492)" fill="#e9f3bd"/><path d="M192.419,484.687a9.645,9.645,0,0,1-9.646-9.646h0V468.61H47.729v6.431a9.646,9.646,0,0,0,9.646,9.646H192.419Z" transform="translate(-47.729 -339.997)" fill="#d3e77b"/></g><circle cx="51.5" cy="51.5" r="51.5" transform="translate(156 132.578)" fill="#f0f7d3"/><g transform="translate(131.588 -5.815)"><g transform="translate(39.152 149.419)"><g transform="translate(0 0)"><path d="M82.6,38.694a29.094,29.094,0,0,0-.2-3.366,4.359,4.359,0,0,1,1.472-3.77L88.3,27.677a4.111,4.111,0,0,0,.8-5.228l-4.731-7.767a4.11,4.11,0,0,0-5.012-1.688l-5.514,2.164a4.351,4.351,0,0,1-4.023-.461,28.863,28.863,0,0,0-4.038-2.272A4.348,4.348,0,0,1,63.3,9.233L62.282,3.4A4.111,4.111,0,0,0,58.233,0H49.139A4.11,4.11,0,0,0,45.09,3.4l-1.019,5.83a4.348,4.348,0,0,1-2.477,3.192A28.862,28.862,0,0,0,37.555,14.7a4.352,4.352,0,0,1-4.023.461l-5.514-2.164a4.111,4.111,0,0,0-5.012,1.688l-4.731,7.767a4.111,4.111,0,0,0,.8,5.228L23.5,31.558a4.359,4.359,0,0,1,1.472,3.77,29.121,29.121,0,0,0,0,6.731,4.359,4.359,0,0,1-1.472,3.77L19.074,49.71a4.111,4.111,0,0,0-.8,5.228L23.005,62.7a4.11,4.11,0,0,0,5.012,1.688l5.514-2.164a4.352,4.352,0,0,1,4.023.461,28.862,28.862,0,0,0,4.038,2.272,4.348,4.348,0,0,1,2.477,3.192l1.019,5.83c.344,1.968,2.052,2.8,4.049,2.8h9.094c2,0,3.705-.828,4.049-2.8l1.019-5.83a4.348,4.348,0,0,1,2.477-3.192,28.861,28.861,0,0,0,4.038-2.272,4.352,4.352,0,0,1,4.023-.461l5.514,2.164a4.111,4.111,0,0,0,5.012-1.688L89.1,54.938a4.111,4.111,0,0,0-.8-5.228l-4.423-3.881a4.359,4.359,0,0,1-1.472-3.77,29,29,0,0,0,.2-3.366Z" transform="translate(-17.674 0)" fill="#c5df4f"/><path d="M23.634,0A23.634,23.634,0,1,1,0,23.634,23.634,23.634,0,0,1,23.634,0Z" transform="translate(12.378 15.06)" fill="#e2efa7"/></g><path d="M245.063,190.218l-4.73,7.768a4.114,4.114,0,0,1-5.013,1.689l-5.514-2.165a4.351,4.351,0,0,0-4.023.461,28.927,28.927,0,0,1-4.039,2.273,4.345,4.345,0,0,0-2.476,3.191l-1.02,5.831c-.344,1.967-2.052,2.947-4.048,2.947h-9.1a4.1,4.1,0,0,1-2.643-.964c-.367-.308-.68-.225-.921-.645a4.091,4.091,0,0,0,2.047.546h9.1a4.11,4.11,0,0,0,4.048-3.4q.3-1.739.457-3.5c.1-1.171.153-2.349.153-3.525v-11.1a19.477,19.477,0,0,0,5.314-30.142q.685.61,1.308,1.287l14.567,14.567c-.032.675-.083,1.344-.161,2.006a4.361,4.361,0,0,0,1.472,3.771l4.423,3.88a4.109,4.109,0,0,1,.8,5.227Z" transform="translate(-173.64 -135.281)" fill="#daeb91"/><path d="M212.135,358.434a40.783,40.783,0,0,0,.609-7.023V335.333H194.333v16.078a40.783,40.783,0,0,0,.609,7.023,4.111,4.111,0,0,0,4.049,3.4h9.094A4.11,4.11,0,0,0,212.135,358.434Z" transform="translate(-167.527 -284.45)" fill="#cce365"/><path d="M194.333,340.314,212.18,358.16a40.777,40.777,0,0,0,.564-6.75V335.333H194.333Z" transform="translate(-167.527 -284.45)" fill="#cce365"/><path d="M165.608,164.973a19.474,19.474,0,1,1-30.794-15.848,1.335,1.335,0,0,1,2.113,1.083v12.854a4.376,4.376,0,0,0,2.188,3.79l4.83,2.789a4.376,4.376,0,0,0,4.376,0l4.83-2.789a4.376,4.376,0,0,0,2.188-3.79V150.207a1.333,1.333,0,0,1,2.1-1.09A19.448,19.448,0,0,1,165.608,164.973Z" transform="translate(-110.122 -126.28)" fill="#bedb39"/><path d="M160.022,166.614a6.85,6.85,0,0,0,3.425,5.932l7.562,4.366a6.85,6.85,0,0,0,6.85,0l7.562-4.366a6.85,6.85,0,0,0,3.425-5.932V151.879a19.587,19.587,0,0,0-3.1-2.76,1.333,1.333,0,0,0-2.1,1.09v12.854a4.376,4.376,0,0,1-2.188,3.79l-4.83,2.789a4.376,4.376,0,0,1-4.376,0l-4.83-2.789a4.376,4.376,0,0,1-2.188-3.79V150.208a1.335,1.335,0,0,0-2.113-1.083,19.584,19.584,0,0,0-3.092,2.753v14.736Z" transform="translate(-138.422 -126.28)" fill="#bedb39"/></g></g></g></g></svg>