<svg xmlns="http://www.w3.org/2000/svg" width="226.5" height="175.626" viewBox="0 0 226.5 175.626"><g transform="translate(-94 -119)"><g transform="translate(64 -6)"><g transform="translate(110 135.578)"><g transform="translate(124.675 68.457)"><path d="M470.9,183.806H457.294a5.7,5.7,0,0,0-2.451.557q.14,2.258.142,4.554v11.27a28.562,28.562,0,0,1,4.793,5.3H470.9a5.784,5.784,0,0,0,5.767-5.767V189.573a5.784,5.784,0,0,0-5.767-5.767Z" transform="translate(-454.843 -183.806)" fill="#dfebfa"/></g><g transform="translate(124.675 68.457)"><path d="M464.224,199.721V189.573a5.784,5.784,0,0,1,5.767-5.767h-12.7a5.7,5.7,0,0,0-2.451.557q.14,2.258.142,4.554v11.27a28.551,28.551,0,0,1,4.793,5.3h10.214a5.784,5.784,0,0,1-5.767-5.767Z" transform="translate(-454.842 -183.806)" fill="#b1dbfc"/><path d="M455.215,226.707h0Z" transform="translate(-455.073 -210.326)" fill="#b1dbfc"/></g><g transform="translate(-49 68.457)"><path d="M18.579,200.187v-11.27c0-1.719.067-3.424.185-5.111h-13A5.784,5.784,0,0,0,0,189.573v10.148a5.784,5.784,0,0,0,5.767,5.767h8.02A28.56,28.56,0,0,1,18.579,200.187Z" transform="translate(0 -183.806)" fill="#dfebfa"/></g><path d="M9.382,199.721V189.573a5.784,5.784,0,0,1,5.767-5.767H5.767A5.784,5.784,0,0,0,0,189.573v10.148a5.784,5.784,0,0,0,5.767,5.767h8.02c.034-.048.069-.1.1-.144a5.787,5.787,0,0,1-4.508-5.623Z" transform="translate(-49 -115.349)" fill="#b1dbfc"/><g transform="translate(-31.207 27)"><path d="M64.935,126.689h120.14a27.908,27.908,0,0,1,18.336,6.89V122.21c0-12.071-2.9-23.523-8.169-32.247-5.737-9.5-13.6-14.731-22.138-14.731h-96.2c-8.54,0-16.4,5.232-22.138,14.731C49.5,98.687,46.6,110.139,46.6,122.21v11.369a27.906,27.906,0,0,1,18.336-6.89Z" transform="translate(-46.599 -75.232)" fill="#5a678a"/></g><g transform="translate(-31.207 27)"><path d="M59.247,122.211c0-12.071,2.9-23.523,8.169-32.247,5.737-9.5,13.6-14.731,22.138-14.731H76.905c-8.54,0-16.4,5.232-22.138,14.731C49.5,98.688,46.6,110.14,46.6,122.211V133.58a28.08,28.08,0,0,1,12.649-6.3Z" transform="translate(-46.598 -75.233)" fill="#46547c"/></g><g transform="translate(-21.28 37.014)"><path d="M81.006,142.9h120.14a27.74,27.74,0,0,1,8.409,1.3v-5.78c0-10.258-2.387-19.86-6.72-27.037-3.866-6.4-8.717-9.927-13.661-9.927h-96.2c-4.944,0-9.8,3.525-13.661,9.927-4.333,7.177-6.72,16.779-6.72,27.037v5.78A27.736,27.736,0,0,1,81.006,142.9Z" transform="translate(-72.597 -101.459)" fill="#acb3c4"/></g><g transform="translate(-21.28 37.015)"><path d="M85.245,138.424c0-10.258,2.387-19.86,6.72-27.037,3.866-6.4,8.717-9.927,13.661-9.927H92.976c-4.944,0-9.8,3.525-13.661,9.927-4.333,7.177-6.72,16.779-6.72,27.037v5.78a27.74,27.74,0,0,1,8.409-1.3h4.24v-4.479Z" transform="translate(-72.596 -101.46)" fill="#98a0b6"/></g><path d="M169.113,208.819H48.973a28.278,28.278,0,0,0-28.2,28.2v28.837a4.716,4.716,0,0,1,1.31-.189h65.66a4.761,4.761,0,0,1,3.813-1.925h34.965a4.762,4.762,0,0,1,3.813,1.925H196a4.714,4.714,0,0,1,1.31.189V237.014a28.279,28.279,0,0,0-28.2-28.2Z" transform="translate(-61.844 -130.811)" fill="#5a678a"/><g transform="translate(-41.066 78.008)"><path d="M39.291,237.014a28.278,28.278,0,0,1,28.2-28.2H48.973a28.278,28.278,0,0,0-28.2,28.2v28.837a4.714,4.714,0,0,1,1.31-.188h17.2Z" transform="translate(-20.778 -208.819)" fill="#46547c"/></g><path d="M198.269,236.352a15.029,15.029,0,0,0,12.814-7.175l12.479-20.358H131.87l12.479,20.358a15.03,15.03,0,0,0,12.814,7.175Z" transform="translate(-130.517 -130.811)" fill="#98a0b6"/><path d="M161.361,229.177l-12.479-20.358H131.87l12.479,20.358a15.03,15.03,0,0,0,12.814,7.175h17.013A15.031,15.031,0,0,1,161.361,229.177Z" transform="translate(-130.517 -130.811)" fill="#6f7a99"/><g transform="translate(20.92 113.666)"><path d="M232.723,308.1H186.066a2.95,2.95,0,0,1,0-5.9h46.657a2.95,2.95,0,0,1,0,5.9Z" transform="translate(-183.116 -302.204)" fill="#d5d9e1"/></g><path d="M11.5,0A11.5,11.5,0,1,1,0,11.5,11.5,11.5,0,0,1,11.5,0Z" transform="translate(98.558 94.797)" fill="#d5d9e1"/><circle cx="11.5" cy="11.5" r="11.5" transform="translate(-27.16 94.797)" fill="#d5d9e1"/><path d="M397.85,264.286a11.493,11.493,0,0,1,5.8-9.984,11.5,11.5,0,1,0,0,19.968A11.491,11.491,0,0,1,397.85,264.286Z" transform="translate(-287.885 -157.99)" fill="#c1c6d3"/><path d="M68.6,264.286a11.493,11.493,0,0,1,5.8-9.984,11.5,11.5,0,1,0,0,19.968A11.491,11.491,0,0,1,68.6,264.286Z" transform="translate(-84.357 -157.99)" fill="#c1c6d3"/><g transform="translate(94.258 146.595)"><path d="M375.182,388.443v12.612a5.857,5.857,0,0,0,5.84,5.84h25.842a5.857,5.857,0,0,0,5.84-5.84V388.443Z" transform="translate(-375.182 -388.443)" fill="#665e68"/></g><path d="M392.385,401.054V388.442h-17.2v12.612a5.857,5.857,0,0,0,5.84,5.84h17.2A5.857,5.857,0,0,1,392.385,401.054Z" transform="translate(-280.924 -241.847)" fill="#544e55"/><g transform="translate(-37.383 146.595)"><path d="M30.425,388.443v12.612a5.857,5.857,0,0,0,5.84,5.84H62.107a5.857,5.857,0,0,0,5.84-5.84V388.443Z" transform="translate(-30.425 -388.443)" fill="#665e68"/></g><path d="M47.628,401.054V388.442h-17.2v12.612a5.857,5.857,0,0,0,5.84,5.84h17.2A5.857,5.857,0,0,1,47.628,401.054Z" transform="translate(-67.808 -241.847)" fill="#544e55"/><path d="M81.6,364.588v-9.21a4.73,4.73,0,0,1,.952-2.84H16.494a4.779,4.779,0,0,0-4.765,4.765v5.36a4.779,4.779,0,0,0,4.765,4.765H82.547a4.729,4.729,0,0,1-.952-2.84Z" transform="translate(-56.25 -219.653)" fill="#dfebfa"/><path d="M28.932,362.663V357.3a4.779,4.779,0,0,1,4.765-4.765h-17.2a4.779,4.779,0,0,0-4.765,4.765v5.36a4.779,4.779,0,0,0,4.765,4.765H33.7A4.779,4.779,0,0,1,28.932,362.663Z" transform="translate(-56.25 -219.653)" fill="#b1dbfc"/><path d="M372.731,352.539H306.678a4.729,4.729,0,0,1,.952,2.84v9.209a4.729,4.729,0,0,1-.952,2.84h66.053a4.779,4.779,0,0,0,4.765-4.765V357.3a4.779,4.779,0,0,0-4.765-4.765Z" transform="translate(-238.577 -219.653)" fill="#dfebfa"/><path d="M232.672,366.236H195.347a4.779,4.779,0,0,1-4.765-4.765v-9.21a4.779,4.779,0,0,1,4.765-4.765h37.325a4.779,4.779,0,0,1,4.765,4.765v9.21A4.779,4.779,0,0,1,232.672,366.236Z" transform="translate(-166.811 -216.536)" fill="#b1dbfc"/><path d="M207.785,361.471v-9.21a4.779,4.779,0,0,1,4.765-4.765h-17.2a4.779,4.779,0,0,0-4.765,4.765v9.21a4.779,4.779,0,0,0,4.765,4.765h17.2A4.778,4.778,0,0,1,207.785,361.471Z" transform="translate(-166.812 -216.536)" fill="#8bcaff"/><path d="M309.5,144.519a21.889,21.889,0,0,0-21.862,22.055,22.376,22.376,0,0,0,.2,2.946H297.8a12.3,12.3,0,0,1-.358-2.946,12.067,12.067,0,1,1,24.134,0,12.3,12.3,0,0,1-.358,2.946h9.954a22.448,22.448,0,0,0,.2-2.946A21.96,21.96,0,0,0,309.5,144.519Z" transform="translate(-226.81 -91.063)" fill="#d5d9e1"/><g transform="translate(60.832 53.457)"><path d="M298.626,161.3a21.987,21.987,0,0,1,16.054-16.154,21.716,21.716,0,0,0-5.175-.627,21.959,21.959,0,0,0-21.862,22.055,22.439,22.439,0,0,0,.2,2.946H297.8a12.3,12.3,0,0,1,.83-8.219Z" transform="translate(-287.643 -144.52)" fill="#c1c6d3"/></g></g><g transform="translate(30 125)" fill="#c1c6d3" stroke="#c1c6d3" stroke-width="8"><circle cx="51.5" cy="51.5" r="51.5" stroke="none"/><circle cx="51.5" cy="51.5" r="47.5" fill="none"/></g></g><g transform="translate(153.18 143.673)"><g transform="translate(-49 -13)"><path d="M22.774,157.8a25.98,25.98,0,0,1,0-36.761L12.059,110.325a41.564,41.564,0,0,0-9.01,13.5,41.218,41.218,0,0,0,9.01,44.692,2.411,2.411,0,0,0,3.41,0l7.3-7.3a2.411,2.411,0,0,0,0-3.41Z" transform="translate(0 -98.266)" fill="#eaecf0"/><path d="M129.519,47.37a41.128,41.128,0,0,0-58.19,0,2.412,2.412,0,0,0,0,3.41l7.3,7.3a2.412,2.412,0,0,0,3.411,0,25.98,25.98,0,0,1,36.761,0,2.411,2.411,0,0,0,3.41,0l7.3-7.3A2.412,2.412,0,0,0,129.519,47.37Z" transform="translate(-59.27 -35.311)" fill="#acb3c4"/><path d="M285.1,47.37A40.883,40.883,0,0,0,256,35.311V50.465a25.824,25.824,0,0,1,18.381,7.619,2.411,2.411,0,0,0,3.41,0l7.3-7.3A2.412,2.412,0,0,0,285.1,47.37Z" transform="translate(-214.846 -35.311)" fill="#98a0b6"/><path d="M366.651,157.8a25.98,25.98,0,0,0,0-36.761l10.714-10.715a41.128,41.128,0,0,1,0,58.19,2.411,2.411,0,0,1-3.41,0l-7.3-7.3a2.411,2.411,0,0,1,0-3.41Z" transform="translate(-307.115 -98.266)" fill="#6f7a99"/><path d="M15.154,139.415a25.825,25.825,0,0,1,7.619-18.375L12.059,110.325A40.879,40.879,0,0,0,0,139.42Z" transform="translate(0 -98.266)" fill="#d5d9e1"/><path d="M366.651,309.665a25.853,25.853,0,0,0,7.619-18.386l15.154.005a40.879,40.879,0,0,1-12.059,29.1,2.411,2.411,0,0,1-3.41,0l-7.3-7.3A2.411,2.411,0,0,1,366.651,309.665Z" transform="translate(-307.115 -250.13)" fill="#46547c"/><path d="M143.889,246.419a7.586,7.586,0,0,0-10.716,0c-3.732,3.732-15.444,22.074-16.767,24.153a2.411,2.411,0,0,0,3.329,3.329c2.079-1.323,20.421-13.034,24.153-16.767A7.586,7.586,0,0,0,143.889,246.419Z" transform="translate(-97.377 -210.622)" fill="#003c50"/><path d="M147.577,257.986l-27.153,27.153a2.411,2.411,0,0,0,3,.329c2.079-1.323,20.421-13.034,24.153-16.767A7.586,7.586,0,0,0,147.577,257.986Z" transform="translate(-101.065 -222.189)" fill="#001428"/></g></g></g></svg>