<svg enable-background="new 0 0 45 45" viewBox="0 0 45 45" xmlns="http://www.w3.org/2000/svg"><path d="m29.31 23.98s-3.75-1.51-6.83-.44v3.67c.48-.07.92-.18 1.36-.29l5.1-1.1z" fill="#f1543f"/><path d="m15.65 23.98.37 1.84 6.46 1.43v-3.67c-3.08-1.07-6.83.4-6.83.4z" fill="#f1543f"/><path d="m31.77 29.05-4.66-5.36h-9.26l-4.66 5.36z" fill="#fff"/><path d="m19.25 27.25h6.43v3.89h-6.43z" fill="#ff7058"/><path d="m27.22 23.83c-.04-.04-.04-.11-.07-.15 0 0-.07.4-.55.99-2.06 2.57-6.1 2.57-8.15 0-.48-.62-.55-.99-.55-.99-.04.04-.04.07-.07.11.18-.29.26-.66.29-.99l.11-1.36.26-4.22h8.01l.4 5.58c.04.29.11.59.22.88.03.04.06.08.1.15z" fill="#fff"/><path d="m26.82 22.11c-1.25 1.47-2.75 2.42-4.33 2.42-1.62 0-3.12-.95-4.33-2.42l.04-.51.29-4.19h8.01z" fill="#e6e9ee"/><g fill="#fff"><path d="m15.54 8.41c-.44.95-.73 2.13-.73 3.56 0 5.25 3.45 11.86 7.68 11.86s7.68-6.61 7.68-11.86c0-1.43-.26-2.61-.73-3.56z"/><path d="m31.48 15.17c-.55 1.25-1.51 1.95-2.17 1.58s-.73-1.65-.18-2.86c.55-1.25 1.51-1.95 2.17-1.58.66.32.73 1.61.18 2.86z"/><path d="m13.48 15.17c.55 1.25 1.51 1.95 2.17 1.58s.73-1.65.18-2.86c-.55-1.25-1.51-1.95-2.17-1.58-.65.32-.73 1.61-.18 2.86z"/></g><path d="m15.72 8h-1.76c-.22.77-.37 1.58-.37 2.42 0 1.91.62 3.67 1.69 5.1-.29-1.21-.48-2.42-.48-3.56.01-1.6.34-2.93.92-3.96z" fill="#2b3b4e"/><path d="m29.24 8c.59 1.03.92 2.35.92 3.97 0 1.14-.15 2.39-.48 3.56 1.07-1.43 1.69-3.2 1.69-5.1 0-.84-.11-1.65-.37-2.42h-1.76z" fill="#2b3b4e"/><path d="m31.37 10.43c0 .62-.07 1.21-.18 1.8-.33-.11-.7 0-1.03.26 0-.18 0-.37 0-.51s0-.26 0-.4c-.04-1.54-1.58-2.53-3.01-1.95-1.25.51-2.86.81-4.63.81-1.76 0-3.38-.29-4.63-.81-1.43-.59-2.97.44-3.01 1.95v.4.51c-.37-.26-.73-.37-1.03-.26-.11-.59-.18-1.18-.18-1.8 0-.84.11-1.69.37-2.46.04-.07.04-.18.07-.26 2.39-.48 5.33-.73 8.45-.73s6.02.25 8.44.73c.04.07.04.18.07.26.15.77.3 1.61.3 2.46z" fill="#2b3b4e"/><path d="m21.27 28.5h1.1c-.44 0-.81 0-1.1 0z" fill="#f1543f"/><path d="m41.1 35.33c-4.26 5.62-11.02 9.26-18.62 9.26-.26 0-.51 0-.77 0-7.27-.22-13.74-3.82-17.81-9.26 0-9.55 9.84-8.63 11.13-9.03.07-.07.15-.11.22-.18.88 1.4 3.82 2.42 7.27 2.42 3.38 0 6.24-.95 7.2-2.31.18.03 11.16-.45 11.38 9.1z" fill="#ff7058"/><circle cx="22.48" cy="30.3" fill="#ffd05b" r=".77"/><circle cx="22.48" cy="33.35" fill="#ffd05b" r=".77"/><path d="m31.33 9.62c0 1.21-3.97 2.13-8.89 2.13-4.88 0-8.89-.95-8.89-2.13 0-1.21 3.97-2.17 8.89-2.17s8.89.96 8.89 2.17z" fill="#f1543f"/><path d="m31.33 9.62c-5.8-1.69-11.94-1.69-17.74 0 .04-.37.11-.73.15-1.1.62-4.3 4.3-7.57 8.67-7.57h.15c4.37 0 8.01 3.27 8.63 7.6.07.34.11.7.14 1.07z" fill="#ff7058"/><path d="m31.33 9.62c-1.47-.44-2.94-.73-4.44-.95-1.36-.18-2.75-.29-4.11-.29-.18 0-.37 0-.55 0-1.4 0-2.75.11-4.11.29-1.51.22-2.97.51-4.44.95.04-.37.11-.73.15-1.1.55-4.3 4.22-7.57 8.59-7.57h.15c4.37 0 8.01 3.27 8.63 7.6.06.34.1.7.13 1.07z" fill="#ff7058"/><path d="m26.89 8.67c-1.36-.18-2.75-.29-4.11-.29-.18 0-.37 0-.55 0-1.4 0-2.75.11-4.11.29 0-.04 0-.07 0-.15.29-4.3 2.17-7.57 4.37-7.6h.07c2.2 0 4.04 3.27 4.37 7.6-.04.07-.04.11-.04.15z" fill="#f1543f"/><path d="m29.31 23.98s-3.49 2.5-6.83 3.27c0 0 2.09 1.03 2.68 4.11l5.44-4.96z" fill="#e6e9ee"/><path d="m15.65 23.98s3.49 2.5 6.83 3.27c0 0-2.09 1.03-2.68 4.11l-5.44-4.99z" fill="#e6e9ee"/><ellipse cx="22.48" cy=".99" fill="#fff" rx="1.32" ry=".26"/><path d="m36.8 27.87-11.6 16.57c-.88.11-1.8.15-2.75.15-.26 0-.51 0-.77 0-.4 0-.81-.04-1.21-.07l12.56-17.96c1.2.21 2.56.62 3.77 1.31z" fill="#2b3b4e"/></svg>