<svg enable-background="new 0 0 45 45" viewBox="0 0 45 45" xmlns="http://www.w3.org/2000/svg"><circle cx="22.5" cy="22.5" fill="#77b3d4" r="22.1"/><g fill="#231f20" opacity=".2"><path d="m22.5 8.62c-8.43 0-15.19 6.77-15.19 15.19s6.77 15.19 15.19 15.19 15.19-6.77 15.19-15.19-6.76-15.19-15.19-15.19zm-12.36 8.84c.14.55-.14 1.66-.35 3.11-.28 1.73 1.1 1.38 1.1 3.04s1.24 2.35 1.04 2.49c-.14.14-.83.41.14 2.56.97 2.14 1.86 2.76 1.93 3.94.14 1.17 1.38 2.9 1.38 2.9l.07.35c-4.14-2.42-6.91-6.91-6.91-12.02.01-2.3.56-4.44 1.6-6.37zm6.84 18.71c-.07-.28.07-1.93 2.07-2.62s1.66-1.52 2.28-2.42c.62-.83.69-1.52-.41-1.73-1.1-.28-2.35-.48-3.32-2.07-1.04-1.59-2.42-1.66-3.18-2.14s-1.38-.41-2.28-.55c-1.04-.07-.69-2.69-.69-3.25.07-.55-.55.21-1.04-.21-.48-.41.41-2.21 1.31-2.14s.69.48.83 1.45.48.76.55.41c.07-.28.14-1.59.41-2s.35-1.52 1.38-1.45c.97.07.97-.9 1.73-.62s1.24.07.76-.35c-.48-.41-.21-.83.62-.55s.83-1.17.69-1.86c-.14-.76-.76-.97-1.45-.48-.76.48-1.31.28-.9-.48.35-.76 1.86-.14 2.76.28.9.35 1.1-.97.62-1.66s-.55-.35-1.93-.28c-.55.07-.48-.28-.21-.62 1.52-.55 3.18-.9 4.9-.9 1.73 0 3.45.35 4.97.9.21.28.28.48.14.55-.55.35-1.04.07-.9 1.1.14 1.04.97 2.35 1.59 1.93.62-.41 1.66.14.76.69s-1.17.55-1.59.9c-.41.35-.21.21.21.69s.35.55-.21.83c-.62.21-.97.76-.35 1.38.55.62.97 1.1 1.59 0 .62-1.11.76-2.07 1.31-1.73.55.28 1.17 1.17 1.59.69.41-.48.35-.83.9-.48s2.56.41 1.24 1.38c-1.38.97-1.1 1.45-1.73 1.31-.62-.14-3.52-.76-4.21.9-.69 1.59-3.11 2.9-1.8 4.49 1.24 1.59.97 2.69 2.76 2.97 1.8.21 2.69-.55 3.18.28.48.83.07.9.14 2.21 0 .62.35 1.8.69 2.83-2.56 2.62-6.08 4.28-10.01 4.28-2 0-3.87-.41-5.59-1.17-.18-.48-.18-.62-.18-.69z"/><path d="m22.57 12.97c.41-.28.48.07.83-1.11.35-1.24-1.45-1.38-2.28-1.24s-.48.48-.48.48c.28.48.48 2.14-.07 2.69-.48.62.41.76.83.14.48-.48.69-.68 1.17-.96z"/></g><g fill="#fff"><path d="m22.5 7.38c-8.43 0-15.19 6.77-15.19 15.19s6.77 15.19 15.19 15.19 15.19-6.77 15.19-15.19-6.76-15.19-15.19-15.19zm-12.36 8.84c.14.55-.14 1.66-.35 3.11-.28 1.73 1.1 1.38 1.1 3.04s1.24 2.35 1.04 2.49c-.14.14-.83.41.14 2.56.97 2.14 1.86 2.76 1.93 3.94.14 1.17 1.38 2.9 1.38 2.9l.07.35c-4.14-2.42-6.91-6.91-6.91-12.02.01-2.3.56-4.44 1.6-6.37zm6.84 18.71c-.07-.28.07-1.93 2.07-2.62s1.66-1.52 2.28-2.42c.62-.83.69-1.52-.41-1.73-1.1-.28-2.35-.48-3.32-2.07-1.04-1.59-2.42-1.66-3.18-2.14s-1.38-.41-2.28-.55-.62-2.69-.55-3.25c.07-.55-.55.21-1.04-.21-.48-.41.41-2.21 1.31-2.14s.69.48.83 1.45.48.76.55.41c.07-.28.14-1.59.41-2s.35-1.52 1.38-1.45c.97.07.97-.9 1.73-.62s1.24.07.76-.35c-.48-.41-.21-.83.62-.55s.83-1.17.69-1.86c-.14-.76-.76-.97-1.45-.48-.76.48-1.31.28-.9-.48.35-.76 1.86-.14 2.76.28.9.35 1.1-.97.62-1.66s-.55-.35-1.93-.28c-.55.07-.48-.28-.21-.62 1.52-.55 3.18-.9 4.9-.9 1.73 0 3.45.35 4.97.9.21.28.28.48.14.55-.55.35-1.04.07-.9 1.11s.97 2.35 1.59 1.93c.62-.41 1.66.14.76.69s-1.17.55-1.59.9c-.41.35-.21.21.21.69.41.48.35.55-.21.83-.62.21-.97.76-.35 1.38.55.62.97 1.1 1.59 0 .62-1.11.76-2.07 1.31-1.73.55.28 1.17 1.17 1.59.69.41-.48.35-.83.9-.48s2.56.41 1.24 1.38c-1.38.97-1.1 1.45-1.73 1.31-.62-.14-3.52-.76-4.21.9-.69 1.59-3.11 2.9-1.8 4.49 1.24 1.59.97 2.69 2.76 2.97 1.8.21 2.69-.55 3.18.28s.07.9.14 2.21c0 .62.35 1.8.69 2.83-2.56 2.62-6.08 4.28-10.01 4.28-2 0-3.87-.41-5.59-1.17-.32-.49-.32-.63-.32-.7z"/><path d="m22.57 11.73c.41-.28.48.07.83-1.11.35-1.24-1.45-1.38-2.28-1.24s-.48.48-.48.48c.28.48.48 2.14-.07 2.69-.48.62.41.76.83.14.41-.62.69-.69 1.17-.96z"/></g></svg>