<svg enable-background="new 0 0 45 45" viewBox="0 0 45 45" xmlns="http://www.w3.org/2000/svg"><path d="m39.79 15.96c-1.12 0-2.03-.92-2.03-2.03v-3.05c0-1.12.92-2.03 2.03-2.03 1.12 0 2.03.92 2.03 2.03v3.05c.01 1.12-.91 2.03-2.03 2.03z" fill="#231f20" opacity=".2"/><path d="m39.79 25.12c-1.12 0-2.03-.92-2.03-2.03v-3.05c0-1.12.92-2.03 2.03-2.03 1.12 0 2.03.92 2.03 2.03v3.05c.01 1.11-.91 2.03-2.03 2.03z" fill="#231f20" opacity=".2"/><path d="m39.79 34.27c-1.12 0-2.03-.92-2.03-2.03v-3.05c0-1.12.92-2.03 2.03-2.03 1.12 0 2.03.92 2.03 2.03v3.05c.01 1.12-.91 2.03-2.03 2.03z" fill="#231f20" opacity=".2"/><path d="m39.79 13.93c-1.12 0-2.03-.92-2.03-2.03v-3.06c0-1.12.92-2.03 2.03-2.03 1.12 0 2.03.92 2.03 2.03v3.05c.01 1.12-.91 2.04-2.03 2.04z" fill="#77b3d4"/><path d="m39.79 23.09c-1.12 0-2.03-.92-2.03-2.03v-3.06c0-1.12.92-2.03 2.03-2.03 1.12 0 2.03.92 2.03 2.03v3.05c.01 1.12-.91 2.04-2.03 2.04z" fill="#fff"/><path d="m39.79 32.24c-1.12 0-2.03-.92-2.03-2.03v-3.05c0-1.12.92-2.03 2.03-2.03 1.12 0 2.03.92 2.03 2.03v3.05c.01 1.11-.91 2.03-2.03 2.03z" fill="#76c2af"/><path d="m39.79 40.38c0 2.24-1.83 4.07-4.07 4.07h-24.41c-2.24 0-4.07-1.83-4.07-4.07v-32.55c0-2.24 1.83-4.07 4.07-4.07h24.41c2.24 0 4.07 1.83 4.07 4.07z" fill="#231f20" opacity=".2"/><path d="m38.78 38.34c0 2.24-1.83 4.07-4.07 4.07h-24.42c-2.24 0-4.07-1.83-4.07-4.07v-32.55c0-2.24 1.83-4.07 4.07-4.07h24.41c2.24 0 4.07 1.83 4.07 4.07v32.55z" fill="#e0995e"/><path d="m12.33 1.72h3.05v40.69h-3.05z" fill="#4f5d73"/><g fill="#231f20" opacity=".2"><path d="m10.29 11.9c0 1.12-.92 2.03-2.03 2.03h-3.05c-1.12 0-2.03-.92-2.03-2.03 0-1.12.92-2.03 2.03-2.03h3.05c1.12-.01 2.03.91 2.03 2.03z"/><path d="m10.29 20.03c0 1.12-.92 2.03-2.03 2.03h-3.05c-1.12 0-2.03-.92-2.03-2.03 0-1.12.92-2.03 2.03-2.03h3.05c1.12 0 2.03.91 2.03 2.03z"/><path d="m10.29 28.17c0 1.12-.92 2.03-2.03 2.03h-3.05c-1.12 0-2.03-.92-2.03-2.03 0-1.12.92-2.03 2.03-2.03h3.05c1.12 0 2.03.91 2.03 2.03z"/><path d="m10.29 36.31c0 1.12-.92 2.03-2.03 2.03h-3.05c-1.12 0-2.03-.92-2.03-2.03 0-1.12.92-2.03 2.03-2.03h3.05c1.12-.01 2.03.91 2.03 2.03z"/></g><g fill="#e0e0d1"><path d="m10.29 9.86c0 1.12-.92 2.03-2.03 2.03h-3.05c-1.12 0-2.03-.92-2.03-2.03 0-1.12.92-2.03 2.03-2.03h3.05c1.12 0 2.03.91 2.03 2.03z"/><path d="m10.29 18c0 1.12-.92 2.03-2.03 2.03h-3.05c-1.12 0-2.03-.92-2.03-2.03 0-1.12.92-2.03 2.03-2.03h3.05c1.12-.01 2.03.91 2.03 2.03z"/><path d="m10.29 26.14c0 1.12-.92 2.03-2.03 2.03h-3.05c-1.12 0-2.03-.92-2.03-2.03 0-1.12.92-2.03 2.03-2.03h3.05c1.12-.01 2.03.91 2.03 2.03z"/><path d="m10.29 34.27c0 1.12-.92 2.03-2.03 2.03h-3.05c-1.12 0-2.03-.92-2.03-2.03 0-1.12.92-2.03 2.03-2.03h3.05c1.12 0 2.03.92 2.03 2.03z"/></g><circle cx="26.57" cy="16.98" fill="#f5cf87" r="4.07"/><path d="m32.67 29.49c0 3.05-2.75 2.75-6.1 2.75s-6.1.31-6.1-2.75 2.75-7.43 6.1-7.43 6.1 4.28 6.1 7.43z" fill="#f5cf87"/></svg>