<svg id="surface1" xmlns="http://www.w3.org/2000/svg" width="35.382" height="35.381" viewBox="0 0 35.382 35.381">
  <path id="Path_58" data-name="Path 58" d="M31.007,73.953H21.76a56.147,56.147,0,0,1-4.071,5.633,56.123,56.123,0,0,1-4.068-5.633H4.375L0,85.423H35.382Zm0,0" transform="translate(0 -50.042)" fill="#8f8f8f"/>
  <path id="Path_59" data-name="Path 59" d="M35.006,0a9.416,9.416,0,0,0-9.417,9.416c-.056,8.985,9.417,20.129,9.417,20.129S44.479,18.4,44.423,9.416A9.416,9.416,0,0,0,35.006,0Zm0,13.413a4,4,0,1,1,4-4A4,4,0,0,1,35.006,13.413Zm0,0" transform="translate(-17.315)" fill="#707070"/>
  <path id="Path_60" data-name="Path 60" d="M47.689,76.612l-17.656,6.28-6.881-8.938h6.136a56.323,56.323,0,0,0,4.068,5.633,56.147,56.147,0,0,0,4.071-5.633h9.248Zm0,0" transform="translate(-15.666 -50.042)" fill="#cfcfcf"/>
  <path id="Path_61" data-name="Path 61" d="M22.434,96.416,39.911,90.2,44.7,96.416Zm0,0" transform="translate(-15.18 -61.035)" fill="#9f9f9f"/>
</svg>
