<svg xmlns="http://www.w3.org/2000/svg" width="215.5" height="171.047" viewBox="0 0 215.5 171.047"><g transform="translate(-99 -121)"><g transform="translate(168 127)"><g transform="translate(-49 27)"><g transform="translate(173.675 41.457)"><path d="M470.9,183.806H457.294a5.7,5.7,0,0,0-2.451.557q.14,2.258.142,4.554v11.27a28.562,28.562,0,0,1,4.793,5.3H470.9a5.784,5.784,0,0,0,5.767-5.767V189.573a5.784,5.784,0,0,0-5.767-5.767Z" transform="translate(-454.843 -183.806)" fill="#dfebfa"/></g><g transform="translate(173.675 41.457)"><path d="M464.224,199.721V189.573a5.784,5.784,0,0,1,5.767-5.767h-12.7a5.7,5.7,0,0,0-2.451.557q.14,2.258.142,4.554v11.27a28.551,28.551,0,0,1,4.793,5.3h10.214a5.784,5.784,0,0,1-5.767-5.767Z" transform="translate(-454.842 -183.806)" fill="#b1dbfc"/><path d="M455.215,226.707h0Z" transform="translate(-455.073 -210.326)" fill="#b1dbfc"/></g><g transform="translate(0 41.457)"><path d="M18.579,200.187v-11.27c0-1.719.067-3.424.185-5.111h-13A5.784,5.784,0,0,0,0,189.573v10.148a5.784,5.784,0,0,0,5.767,5.767h8.02A28.56,28.56,0,0,1,18.579,200.187Z" transform="translate(0 -183.806)" fill="#dfebfa"/></g><path d="M9.382,199.721V189.573a5.784,5.784,0,0,1,5.767-5.767H5.767A5.784,5.784,0,0,0,0,189.573v10.148a5.784,5.784,0,0,0,5.767,5.767h8.02c.034-.048.069-.1.1-.144a5.787,5.787,0,0,1-4.508-5.623Z" transform="translate(0 -142.349)" fill="#b1dbfc"/><g transform="translate(17.793)"><path d="M64.935,126.689h120.14a27.908,27.908,0,0,1,18.336,6.89V122.21c0-12.071-2.9-23.523-8.169-32.247-5.737-9.5-13.6-14.731-22.138-14.731h-96.2c-8.54,0-16.4,5.232-22.138,14.731C49.5,98.687,46.6,110.139,46.6,122.21v11.369a27.906,27.906,0,0,1,18.336-6.89Z" transform="translate(-46.599 -75.232)" fill="#ffe132"/></g><g transform="translate(17.793 0)"><path d="M59.247,122.211c0-12.071,2.9-23.523,8.169-32.247,5.737-9.5,13.6-14.731,22.138-14.731H76.905c-8.54,0-16.4,5.232-22.138,14.731C49.5,98.688,46.6,110.14,46.6,122.211V133.58a28.08,28.08,0,0,1,12.649-6.3Z" transform="translate(-46.598 -75.233)" fill="#eb7e23"/></g><g transform="translate(27.72 10.014)"><path d="M81.006,142.9h120.14a27.74,27.74,0,0,1,8.409,1.3v-5.78c0-10.258-2.387-19.86-6.72-27.037-3.866-6.4-8.717-9.927-13.661-9.927h-96.2c-4.944,0-9.8,3.525-13.661,9.927-4.333,7.177-6.72,16.779-6.72,27.037v5.78A27.736,27.736,0,0,1,81.006,142.9Z" transform="translate(-72.597 -101.459)" fill="#fcf0e6"/></g><g transform="translate(27.72 10.015)"><path d="M85.245,138.424c0-10.258,2.387-19.86,6.72-27.037,3.866-6.4,8.717-9.927,13.661-9.927H92.976c-4.944,0-9.8,3.525-13.661,9.927-4.333,7.177-6.72,16.779-6.72,27.037v5.78a27.74,27.74,0,0,1,8.409-1.3h4.24v-4.479Z" transform="translate(-72.596 -101.46)" fill="#f6c59d"/></g><path d="M169.113,208.819H48.973a28.278,28.278,0,0,0-28.2,28.2v28.837a4.716,4.716,0,0,1,1.31-.189h65.66a4.761,4.761,0,0,1,3.813-1.925h34.965a4.762,4.762,0,0,1,3.813,1.925H196a4.714,4.714,0,0,1,1.31.189V237.014a28.279,28.279,0,0,0-28.2-28.2Z" transform="translate(-12.844 -157.811)" fill="#ffe433"/><g transform="translate(7.934 51.008)"><path d="M39.291,237.014a28.278,28.278,0,0,1,28.2-28.2H48.973a28.278,28.278,0,0,0-28.2,28.2v28.837a4.714,4.714,0,0,1,1.31-.188h17.2Z" transform="translate(-20.778 -208.819)" fill="#fed330"/></g><path d="M198.269,236.352a15.029,15.029,0,0,0,12.814-7.175l12.479-20.358H131.87l12.479,20.358a15.03,15.03,0,0,0,12.814,7.175Z" transform="translate(-81.517 -157.811)" fill="#fcd730"/><path d="M161.361,229.177l-12.479-20.358H131.87l12.479,20.358a15.03,15.03,0,0,0,12.814,7.175h17.013A15.031,15.031,0,0,1,161.361,229.177Z" transform="translate(-81.517 -157.811)" fill="#fec22d"/><g transform="translate(69.92 86.666)"><path d="M232.723,308.1H186.066a2.95,2.95,0,0,1,0-5.9h46.657a2.95,2.95,0,0,1,0,5.9Z" transform="translate(-183.116 -302.204)" fill="#ed8c3b"/></g><circle cx="11.5" cy="11.5" r="11.5" transform="translate(147.558 67.797)" fill="#ffd301"/><circle cx="11.5" cy="11.5" r="11.5" transform="translate(21.84 67.797)" fill="#ffd301"/><path d="M397.85,264.286a11.493,11.493,0,0,1,5.8-9.984,11.5,11.5,0,1,0,0,19.968A11.491,11.491,0,0,1,397.85,264.286Z" transform="translate(-238.885 -184.989)" fill="#ffc20c"/><path d="M68.6,264.286a11.493,11.493,0,0,1,5.8-9.984,11.5,11.5,0,1,0,0,19.968A11.491,11.491,0,0,1,68.6,264.286Z" transform="translate(-35.357 -184.989)" fill="#fec22d"/><g transform="translate(143.258 119.595)"><path d="M375.182,388.443v12.612a5.857,5.857,0,0,0,5.84,5.84h25.842a5.857,5.857,0,0,0,5.84-5.84V388.443Z" transform="translate(-375.182 -388.443)" fill="#665e68"/></g><path d="M392.385,401.054V388.442h-17.2v12.612a5.857,5.857,0,0,0,5.84,5.84h17.2A5.857,5.857,0,0,1,392.385,401.054Z" transform="translate(-231.924 -268.847)" fill="#544e55"/><g transform="translate(11.617 119.595)"><path d="M30.425,388.443v12.612a5.857,5.857,0,0,0,5.84,5.84H62.107a5.857,5.857,0,0,0,5.84-5.84V388.443Z" transform="translate(-30.425 -388.443)" fill="#665e68"/></g><path d="M47.628,401.054V388.442h-17.2v12.612a5.857,5.857,0,0,0,5.84,5.84h17.2A5.857,5.857,0,0,1,47.628,401.054Z" transform="translate(-18.808 -268.847)" fill="#544e55"/><path d="M81.6,364.588v-9.21a4.73,4.73,0,0,1,.952-2.84H16.494a4.779,4.779,0,0,0-4.765,4.765v5.36a4.779,4.779,0,0,0,4.765,4.765H82.547a4.729,4.729,0,0,1-.952-2.84Z" transform="translate(-7.25 -246.653)" fill="#dfebfa"/><path d="M28.932,362.663V357.3a4.779,4.779,0,0,1,4.765-4.765h-17.2a4.779,4.779,0,0,0-4.765,4.765v5.36a4.779,4.779,0,0,0,4.765,4.765H33.7A4.779,4.779,0,0,1,28.932,362.663Z" transform="translate(-7.25 -246.653)" fill="#b1dbfc"/><path d="M372.731,352.539H306.678a4.729,4.729,0,0,1,.952,2.84v9.209a4.729,4.729,0,0,1-.952,2.84h66.053a4.779,4.779,0,0,0,4.765-4.765V357.3a4.779,4.779,0,0,0-4.765-4.765Z" transform="translate(-189.577 -246.653)" fill="#dfebfa"/><path d="M232.672,366.236H195.347a4.779,4.779,0,0,1-4.765-4.765v-9.21a4.779,4.779,0,0,1,4.765-4.765h37.325a4.779,4.779,0,0,1,4.765,4.765v9.21A4.779,4.779,0,0,1,232.672,366.236Z" transform="translate(-117.811 -243.536)" fill="#b1dbfc"/><path d="M207.785,361.471v-9.21a4.779,4.779,0,0,1,4.765-4.765h-17.2a4.779,4.779,0,0,0-4.765,4.765v9.21a4.779,4.779,0,0,0,4.765,4.765h17.2A4.778,4.778,0,0,1,207.785,361.471Z" transform="translate(-117.812 -243.536)" fill="#8bcaff"/><path d="M309.5,144.519a21.889,21.889,0,0,0-21.862,22.055,22.376,22.376,0,0,0,.2,2.946H297.8a12.3,12.3,0,0,1-.358-2.946,12.067,12.067,0,1,1,24.134,0,12.3,12.3,0,0,1-.358,2.946h9.954a22.448,22.448,0,0,0,.2-2.946A21.96,21.96,0,0,0,309.5,144.519Z" transform="translate(-177.81 -118.063)" fill="#ffee7f"/><g transform="translate(109.832 26.457)"><path d="M298.626,161.3a21.987,21.987,0,0,1,16.054-16.154,21.716,21.716,0,0,0-5.175-.627,21.959,21.959,0,0,0-21.862,22.055,22.439,22.439,0,0,0,.2,2.946H297.8a12.3,12.3,0,0,1,.83-8.219Z" transform="translate(-287.643 -144.52)" fill="#ffe74c"/></g></g></g><g transform="translate(99 121)" fill="#fff5b2"><path d="M 51.5 99 C 45.08578491210938 99 38.86555099487305 97.74466705322266 33.0120849609375 95.26885223388672 C 27.35630035400391 92.87666320800781 22.27603340148926 89.45118713378906 17.91243362426758 85.08757019042969 C 13.5488166809082 80.72396850585938 10.12333297729492 75.64369964599609 7.731150150299072 69.9879150390625 C 5.255333423614502 64.13445281982422 4 57.91421508789062 4 51.5 C 4 45.08578491210938 5.255333423614502 38.86555099487305 7.731150150299072 33.0120849609375 C 10.12333297729492 27.35630035400391 13.5488166809082 22.27603340148926 17.91243362426758 17.91243362426758 C 22.27603340148926 13.5488166809082 27.35630035400391 10.12333297729492 33.0120849609375 7.731150150299072 C 38.86555099487305 5.255333423614502 45.08578491210938 4 51.5 4 C 57.91421508789062 4 64.13445281982422 5.255333423614502 69.9879150390625 7.731150150299072 C 75.64369964599609 10.12333297729492 80.72396850585938 13.5488166809082 85.08757019042969 17.91243362426758 C 89.45118713378906 22.27603340148926 92.87666320800781 27.35630035400391 95.26885223388672 33.0120849609375 C 97.74466705322266 38.86555099487305 99 45.08578491210938 99 51.5 C 99 57.91421508789062 97.74466705322266 64.13445281982422 95.26885223388672 69.9879150390625 C 92.87666320800781 75.64369964599609 89.45118713378906 80.72396850585938 85.08757019042969 85.08757019042969 C 80.72396850585938 89.45118713378906 75.64369964599609 92.87666320800781 69.9879150390625 95.26885223388672 C 64.13445281982422 97.74466705322266 57.91421508789062 99 51.5 99 Z" stroke="none"/><path d="M 51.5 8 C 27.51402282714844 8 8 27.51402282714844 8 51.5 C 8 75.48597717285156 27.51402282714844 95 51.5 95 C 75.48597717285156 95 95 75.48597717285156 95 51.5 C 95 27.51402282714844 75.48597717285156 8 51.5 8 M 51.5 0 C 79.94266510009766 0 103 23.05733489990234 103 51.5 C 103 79.94266510009766 79.94266510009766 103 51.5 103 C 23.05733489990234 103 0 79.94266510009766 0 51.5 C 0 23.05733489990234 23.05733489990234 0 51.5 0 Z" stroke="none" fill="#fff5b2"/></g><g transform="translate(-7.176 -9.268)"><path d="M121.269,50.251A31.745,31.745,0,1,1,62.383,33.783s4.042,8.626,10.986,5.837c2.731-1.1,5.839-4.172,2.908-9.247a11.274,11.274,0,0,1,5.483-16.159C89.525,10.919,89.525,0,89.525,0c.782.5,12.266,8.115,8.052,17.919-2.518,5.858-2.819,12.958,2.417,14.527,6.265,1.88,9.572-6.813,9.572-6.813a31.68,31.68,0,0,1,11.7,24.618Z" transform="translate(68.396 137.771)" fill="#fcd703"/><path d="M287.744,50.251A31.745,31.745,0,0,1,256,82V0c.782.5,12.266,8.115,8.052,17.919-2.518,5.858-2.819,12.958,2.417,14.527,6.265,1.88,9.572-6.813,9.572-6.813A31.68,31.68,0,0,1,287.744,50.251Z" transform="translate(-98.079 137.771)" fill="#fe9100"/><path d="M191.293,281.755a15.245,15.245,0,0,1-30.491,0v-.006a27.225,27.225,0,0,1,2.558-11.279l6.231,1.823a16.878,16.878,0,0,1,6.456-13.169A21.037,21.037,0,0,1,181.027,256c.782,9.423,6.31,14.9,8.243,18.371A13.332,13.332,0,0,1,191.293,281.755Z" transform="translate(-18.126 -77.232)" fill="#ff7b49"/><path d="M271.246,281.755A15.266,15.266,0,0,1,256,297V259.126A21.036,21.036,0,0,1,260.981,256c.782,9.423,6.31,14.9,8.243,18.371A13.332,13.332,0,0,1,271.246,281.755Z" transform="translate(-98.079 -77.232)" fill="#fd435b"/></g></g></svg>