<?xml version="1.0" encoding="UTF-8"?>
<svg xmlns="http://www.w3.org/2000/svg" xmlns:xlink="http://www.w3.org/1999/xlink" width="130pt" height="103pt" viewBox="0 0 130 103" version="1.1">
<g id="surface1">
<path style=" stroke:none;fill-rule:nonzero;fill:rgb(87.45098%,92.156863%,98.039216%);fill-opacity:1;" d="M 126.226562 44.847656 L 118.039062 44.847656 C 117.527344 44.847656 117.023438 44.964844 116.5625 45.183594 C 116.621094 46.089844 116.648438 47.003906 116.648438 47.925781 L 116.648438 54.714844 C 117.742188 55.65625 118.710938 56.726562 119.535156 57.90625 L 126.226562 57.90625 C 128.140625 57.902344 129.691406 56.351562 129.699219 54.433594 L 129.699219 48.320312 C 129.691406 46.40625 128.140625 44.855469 126.226562 44.847656 Z M 126.226562 44.847656 "/>
<path style=" stroke:none;fill-rule:nonzero;fill:rgb(69.411765%,85.882353%,98.823529%);fill-opacity:1;" d="M 122.210938 54.433594 L 122.210938 48.320312 C 122.214844 46.40625 123.765625 44.855469 125.679688 44.847656 L 118.039062 44.847656 C 117.527344 44.847656 117.023438 44.964844 116.5625 45.183594 C 116.617188 46.089844 116.648438 47.003906 116.648438 47.925781 L 116.648438 54.714844 C 117.738281 55.65625 118.707031 56.726562 119.53125 57.90625 L 125.679688 57.90625 C 123.765625 57.902344 122.214844 56.351562 122.210938 54.433594 Z M 122.210938 54.433594 "/>
<path style=" stroke:none;fill-rule:nonzero;fill:rgb(87.45098%,92.156863%,98.039216%);fill-opacity:1;" d="M 23.21875 54.714844 L 23.21875 47.925781 C 23.21875 46.890625 23.257812 45.863281 23.332031 44.847656 L 15.507812 44.847656 C 13.59375 44.855469 12.042969 46.40625 12.035156 48.320312 L 12.035156 54.433594 C 12.042969 56.351562 13.59375 57.902344 15.507812 57.910156 L 20.335938 57.910156 C 21.160156 56.726562 22.128906 55.65625 23.21875 54.714844 Z M 23.21875 54.714844 "/>
<path style=" stroke:none;fill-rule:nonzero;fill:rgb(69.411765%,85.882353%,98.823529%);fill-opacity:1;" d="M 17.683594 54.433594 L 17.683594 48.320312 C 17.6875 46.40625 19.238281 44.855469 21.15625 44.847656 L 15.507812 44.847656 C 13.59375 44.855469 12.042969 46.40625 12.035156 48.320312 L 12.035156 54.433594 C 12.042969 56.351562 13.59375 57.902344 15.507812 57.910156 L 20.335938 57.910156 C 20.355469 57.878906 20.375 57.847656 20.394531 57.820312 C 18.8125 57.460938 17.6875 56.058594 17.683594 54.433594 Z M 17.683594 54.433594 "/>
<path style=" stroke:none;fill-rule:nonzero;fill:rgb(92.941176%,54.901961%,23.137255%);fill-opacity:1;" d="M 33.78125 50.871094 L 106.085938 50.871094 C 110.148438 50.875 114.066406 52.347656 117.125 55.023438 L 117.125 48.175781 C 117.125 40.902344 115.378906 34.003906 112.207031 28.75 C 108.753906 23.027344 104.023438 19.878906 98.882812 19.878906 L 40.984375 19.878906 C 35.84375 19.878906 31.113281 23.027344 27.660156 28.75 C 24.492188 34.003906 22.746094 40.902344 22.746094 48.175781 L 22.746094 55.023438 C 25.804688 52.347656 29.722656 50.875 33.78125 50.871094 Z M 33.78125 50.871094 "/>
<path style=" stroke:none;fill-rule:nonzero;fill:rgb(92.156863%,49.411765%,13.72549%);fill-opacity:1;" d="M 30.359375 48.175781 C 30.359375 40.902344 32.105469 34.003906 35.273438 28.75 C 38.726562 23.027344 43.460938 19.878906 48.597656 19.878906 L 40.984375 19.878906 C 35.847656 19.878906 31.117188 23.027344 27.664062 28.75 C 24.492188 34.003906 22.746094 40.902344 22.746094 48.175781 L 22.746094 55.023438 C 24.917969 53.128906 27.539062 51.820312 30.359375 51.226562 Z M 30.359375 48.175781 "/>
<path style=" stroke:none;fill-rule:nonzero;fill:rgb(98.823529%,94.117647%,90.196078%);fill-opacity:1;" d="M 33.78125 50.871094 L 106.085938 50.871094 C 107.804688 50.871094 109.511719 51.132812 111.148438 51.652344 L 111.148438 48.171875 C 111.148438 41.992188 109.710938 36.210938 107.105469 31.886719 C 104.777344 28.03125 101.859375 25.90625 98.882812 25.90625 L 40.984375 25.90625 C 38.007812 25.90625 35.085938 28.03125 32.761719 31.886719 C 30.15625 36.210938 28.71875 41.992188 28.71875 48.171875 L 28.71875 51.652344 C 30.355469 51.132812 32.0625 50.871094 33.78125 50.871094 Z M 33.78125 50.871094 "/>
<path style=" stroke:none;fill-rule:nonzero;fill:rgb(96.470588%,77.254902%,61.568627%);fill-opacity:1;" d="M 36.332031 48.175781 C 36.332031 41.996094 37.769531 36.210938 40.378906 31.890625 C 42.703125 28.035156 45.625 25.910156 48.597656 25.910156 L 40.984375 25.910156 C 38.011719 25.910156 35.089844 28.03125 32.765625 31.890625 C 30.15625 36.210938 28.71875 41.996094 28.71875 48.175781 L 28.71875 51.65625 C 30.355469 51.136719 32.0625 50.871094 33.78125 50.871094 L 36.332031 50.871094 Z M 36.332031 48.175781 "/>
<path style=" stroke:none;fill-rule:nonzero;fill:rgb(94.509804%,66.27451%,42.352941%);fill-opacity:1;" d="M 106.085938 50.601562 L 33.78125 50.601562 C 24.417969 50.628906 16.835938 58.21875 16.808594 67.585938 L 16.808594 84.957031 C 17.066406 84.882812 17.332031 84.84375 17.597656 84.84375 L 57.113281 84.84375 C 57.652344 84.117188 58.503906 83.6875 59.410156 83.683594 L 80.453125 83.683594 C 81.359375 83.6875 82.210938 84.117188 82.75 84.84375 L 122.269531 84.84375 C 122.535156 84.84375 122.800781 84.882812 123.058594 84.957031 L 123.058594 67.585938 C 123.03125 58.214844 115.449219 50.625 106.085938 50.597656 Z M 106.085938 50.601562 "/>
<path style=" stroke:none;fill-rule:nonzero;fill:rgb(92.941176%,54.901961%,23.137255%);fill-opacity:1;" d="M 27.953125 67.585938 C 27.980469 58.214844 35.5625 50.625 44.925781 50.597656 L 33.78125 50.597656 C 24.417969 50.625 16.835938 58.214844 16.808594 67.585938 L 16.808594 84.953125 C 17.066406 84.878906 17.332031 84.839844 17.597656 84.839844 L 27.949219 84.839844 Z M 27.953125 67.585938 "/>
<path style=" stroke:none;fill-rule:nonzero;fill:rgb(93.72549%,60.392157%,32.54902%);fill-opacity:1;" d="M 82.304688 67.183594 C 85.453125 67.1875 88.371094 65.550781 90.015625 62.863281 L 97.527344 50.601562 L 42.34375 50.601562 L 49.851562 62.863281 C 51.496094 65.546875 54.417969 67.183594 57.566406 67.183594 Z M 82.304688 67.183594 "/>
<path style=" stroke:none;fill-rule:nonzero;fill:rgb(92.941176%,54.901961%,23.137255%);fill-opacity:1;" d="M 60.089844 62.863281 L 52.582031 50.601562 L 42.34375 50.601562 L 49.851562 62.863281 C 51.496094 65.546875 54.417969 67.183594 57.566406 67.183594 L 67.804688 67.183594 C 64.65625 67.1875 61.734375 65.550781 60.089844 62.863281 Z M 60.089844 62.863281 "/>
<path style=" stroke:none;fill-rule:nonzero;fill:rgb(92.941176%,54.901961%,23.137255%);fill-opacity:1;" d="M 83.972656 75.632812 L 55.894531 75.632812 C 54.914062 75.632812 54.117188 74.835938 54.117188 73.855469 C 54.117188 72.871094 54.914062 72.078125 55.894531 72.078125 L 83.972656 72.078125 C 84.957031 72.078125 85.75 72.871094 85.75 73.855469 C 85.75 74.835938 84.957031 75.632812 83.972656 75.632812 Z M 83.972656 75.632812 "/>
<path style=" stroke:none;fill-rule:nonzero;fill:rgb(96.470588%,77.254902%,61.568627%);fill-opacity:1;" d="M 114.6875 67.640625 C 114.6875 71.464844 111.589844 74.566406 107.765625 74.566406 C 103.945312 74.566406 100.84375 71.464844 100.84375 67.640625 C 100.84375 63.816406 103.945312 60.714844 107.765625 60.714844 C 111.589844 60.714844 114.6875 63.816406 114.6875 67.640625 Z M 114.6875 67.640625 "/>
<path style=" stroke:none;fill-rule:nonzero;fill:rgb(96.470588%,77.254902%,61.568627%);fill-opacity:1;" d="M 39.023438 67.640625 C 39.023438 71.464844 35.925781 74.566406 32.101562 74.566406 C 28.28125 74.566406 25.179688 71.464844 25.179688 67.640625 C 25.179688 63.816406 28.28125 60.714844 32.101562 60.714844 C 35.925781 60.714844 39.023438 63.816406 39.023438 67.640625 Z M 39.023438 67.640625 "/>
<path style=" stroke:none;fill-rule:nonzero;fill:rgb(93.72549%,60.392157%,32.54902%);fill-opacity:1;" d="M 107.710938 67.640625 C 107.710938 65.15625 109.042969 62.859375 111.199219 61.628906 C 108.292969 59.960938 104.609375 60.625 102.457031 63.195312 C 100.308594 65.769531 100.308594 69.511719 102.457031 72.085938 C 104.609375 74.660156 108.292969 75.320312 111.199219 73.65625 C 109.042969 72.421875 107.710938 70.128906 107.710938 67.640625 Z M 107.710938 67.640625 "/>
<path style=" stroke:none;fill-rule:nonzero;fill:rgb(93.72549%,60.392157%,32.54902%);fill-opacity:1;" d="M 32.042969 67.640625 C 32.042969 65.15625 33.375 62.859375 35.535156 61.628906 C 32.625 59.960938 28.941406 60.625 26.792969 63.195312 C 24.640625 65.769531 24.640625 69.511719 26.792969 72.085938 C 28.941406 74.660156 32.625 75.320312 35.535156 73.65625 C 33.375 72.421875 32.042969 70.128906 32.042969 67.640625 Z M 32.042969 67.640625 "/>
<path style=" stroke:none;fill-rule:nonzero;fill:rgb(40%,36.862745%,40.784314%);fill-opacity:1;" d="M 98.257812 91.914062 L 98.257812 99.511719 C 98.261719 101.449219 99.832031 103.023438 101.773438 103.027344 L 117.324219 103.027344 C 119.265625 103.023438 120.835938 101.449219 120.839844 99.511719 L 120.839844 91.914062 Z M 98.257812 91.914062 "/>
<path style=" stroke:none;fill-rule:nonzero;fill:rgb(32.941176%,30.588235%,33.333333%);fill-opacity:1;" d="M 108.609375 99.511719 L 108.609375 91.914062 L 98.257812 91.914062 L 98.257812 99.511719 C 98.265625 101.449219 99.835938 103.023438 101.773438 103.027344 L 112.125 103.027344 C 110.1875 103.023438 108.617188 101.449219 108.609375 99.511719 Z M 108.609375 99.511719 "/>
<path style=" stroke:none;fill-rule:nonzero;fill:rgb(40%,36.862745%,40.784314%);fill-opacity:1;" d="M 19.027344 91.914062 L 19.027344 99.511719 C 19.035156 101.449219 20.605469 103.023438 22.542969 103.027344 L 38.097656 103.027344 C 40.035156 103.023438 41.605469 101.449219 41.613281 99.511719 L 41.613281 91.914062 Z M 19.027344 91.914062 "/>
<path style=" stroke:none;fill-rule:nonzero;fill:rgb(32.941176%,30.588235%,33.333333%);fill-opacity:1;" d="M 29.382812 99.511719 L 29.382812 91.914062 L 19.03125 91.914062 L 19.03125 99.511719 C 19.035156 101.449219 20.605469 103.023438 22.546875 103.027344 L 32.898438 103.027344 C 30.957031 103.023438 29.386719 101.449219 29.382812 99.511719 Z M 29.382812 99.511719 "/>
<path style=" stroke:none;fill-rule:nonzero;fill:rgb(87.45098%,92.156863%,98.039216%);fill-opacity:1;" d="M 56.785156 90.914062 L 56.785156 85.367188 C 56.785156 84.75 56.988281 84.148438 57.359375 83.65625 L 17.601562 83.65625 C 16.019531 83.660156 14.738281 84.941406 14.734375 86.527344 L 14.734375 89.753906 C 14.738281 91.335938 16.019531 92.621094 17.601562 92.625 L 57.355469 92.625 C 56.984375 92.132812 56.78125 91.53125 56.78125 90.914062 Z M 56.785156 90.914062 "/>
<path style=" stroke:none;fill-rule:nonzero;fill:rgb(69.411765%,85.882353%,98.823529%);fill-opacity:1;" d="M 25.085938 89.753906 L 25.085938 86.523438 C 25.089844 84.941406 26.371094 83.660156 27.953125 83.652344 L 17.601562 83.652344 C 16.019531 83.660156 14.738281 84.941406 14.734375 86.523438 L 14.734375 89.753906 C 14.738281 91.335938 16.019531 92.617188 17.601562 92.621094 L 27.957031 92.621094 C 26.375 92.621094 25.09375 91.335938 25.085938 89.753906 Z M 25.085938 89.753906 "/>
<path style=" stroke:none;fill-rule:nonzero;fill:rgb(87.45098%,92.156863%,98.039216%);fill-opacity:1;" d="M 122.269531 83.65625 L 82.515625 83.65625 C 82.886719 84.148438 83.085938 84.75 83.085938 85.367188 L 83.085938 90.914062 C 83.085938 91.53125 82.886719 92.132812 82.515625 92.625 L 122.269531 92.625 C 123.851562 92.621094 125.132812 91.335938 125.136719 89.753906 L 125.136719 86.523438 C 125.132812 84.941406 123.851562 83.660156 122.269531 83.652344 Z M 122.269531 83.65625 "/>
<path style=" stroke:none;fill-rule:nonzero;fill:rgb(69.411765%,85.882353%,98.823529%);fill-opacity:1;" d="M 81.167969 93.785156 L 58.703125 93.785156 C 57.121094 93.78125 55.839844 92.496094 55.835938 90.914062 L 55.835938 85.367188 C 55.839844 83.785156 57.121094 82.5 58.703125 82.496094 L 81.167969 82.496094 C 82.75 82.5 84.03125 83.785156 84.035156 85.367188 L 84.035156 90.914062 C 84.03125 92.496094 82.75 93.78125 81.167969 93.785156 Z M 81.167969 93.785156 "/>
<path style=" stroke:none;fill-rule:nonzero;fill:rgb(54.509804%,79.215686%,100%);fill-opacity:1;" d="M 66.1875 90.914062 L 66.1875 85.367188 C 66.191406 83.785156 67.472656 82.5 69.054688 82.496094 L 58.703125 82.496094 C 57.121094 82.5 55.839844 83.785156 55.835938 85.367188 L 55.835938 90.914062 C 55.839844 92.496094 57.121094 93.78125 58.703125 93.785156 L 69.054688 93.785156 C 67.472656 93.78125 66.191406 92.496094 66.1875 90.914062 Z M 66.1875 90.914062 "/>
<path style=" stroke:none;fill-rule:nonzero;fill:rgb(93.72549%,60.392157%,32.54902%);fill-opacity:1;" d="M 91.292969 35.8125 C 87.785156 35.816406 84.425781 37.222656 81.953125 39.714844 C 79.484375 42.210938 78.109375 45.585938 78.136719 49.097656 C 78.136719 49.691406 78.179688 50.285156 78.257812 50.871094 L 84.253906 50.871094 C 84.109375 50.292969 84.039062 49.695312 84.039062 49.097656 C 84.039062 45.082031 87.289062 41.828125 91.300781 41.828125 C 95.3125 41.828125 98.5625 45.082031 98.5625 49.097656 C 98.5625 49.695312 98.492188 50.292969 98.347656 50.871094 L 104.339844 50.871094 C 104.925781 46.523438 103.339844 42.164062 100.09375 39.214844 C 97.695312 37.015625 94.554688 35.800781 91.300781 35.8125 Z M 91.292969 35.8125 "/>
<path style=" stroke:none;fill-rule:nonzero;fill:rgb(94.509804%,66.27451%,42.352941%);fill-opacity:1;" d="M 84.75 45.921875 C 85.910156 41.128906 89.632812 37.382812 94.410156 36.191406 C 93.394531 35.941406 92.347656 35.8125 91.296875 35.8125 C 84 35.84375 78.109375 41.792969 78.140625 49.097656 C 78.140625 49.691406 78.179688 50.285156 78.261719 50.871094 L 84.253906 50.871094 C 83.84375 49.214844 84.019531 47.464844 84.753906 45.921875 Z M 84.75 45.921875 "/>
<path style=" stroke:none;fill-rule:nonzero;fill:rgb(97.254902%,83.137255%,70.980392%);fill-opacity:1;" d="M 61.992188 31.019531 C 61.992188 48.152344 48.113281 62.039062 30.996094 62.039062 C 13.878906 62.039062 0 48.152344 0 31.019531 C 0 13.886719 13.878906 0 30.996094 0 C 48.113281 0 61.992188 13.886719 61.992188 31.019531 Z M 61.992188 31.019531 "/>
<path style="fill:none;stroke-width:8;stroke-linecap:butt;stroke-linejoin:miter;stroke:rgb(97.254902%,83.137255%,70.980392%);stroke-opacity:1;stroke-miterlimit:4;" d="M 98.997837 51.498445 C 98.997837 77.73081 77.735337 99.002048 51.501202 99.002048 C 25.267067 99.002048 3.998077 77.73081 3.998077 51.498445 C 3.998077 25.26608 25.267067 4.001327 51.501202 4.001327 C 77.735337 4.001327 98.997837 25.26608 98.997837 51.498445 Z M 98.997837 51.498445 " transform="matrix(0.601852,0,0,0.602339,0,0)"/>
<path style=" stroke:none;fill-rule:nonzero;fill:rgb(92.156863%,49.411765%,13.72549%);fill-opacity:1;" d="M 30.984375 11.445312 C 24.175781 11.445312 18.660156 16.96875 18.65625 23.78125 C 18.585938 35.550781 30.984375 50.152344 30.984375 50.152344 C 30.984375 50.152344 43.382812 35.554688 43.3125 23.78125 C 43.3125 16.96875 37.792969 11.445312 30.984375 11.445312 Z M 30.984375 29.015625 C 28.097656 29.015625 25.753906 26.671875 25.753906 23.78125 C 25.753906 20.890625 28.097656 18.546875 30.984375 18.546875 C 33.875 18.546875 36.214844 20.890625 36.214844 23.78125 C 36.214844 26.671875 33.875 29.015625 30.984375 29.015625 Z M 30.984375 29.015625 "/>
</g>
</svg>
