<svg enable-background="new 0 0 75 75" viewBox="0 0 75 75" xmlns="http://www.w3.org/2000/svg"><path d="m31.5 33.9c-.4 0-.6 0-.9 0-4.4 0-8.9 0-13.3 0-2.9 0-5.2 1.9-5.9 4.7-.3 1.2-.6 2.5-.8 3.8-.7 0-1.4 0-2.1 0-1.8.1-3.3 1.5-3.5 3.2-.2 1.8 1 3.4 2.7 3.9.4.1.9.1 1.6.2-.3.5-.5 1.1-.8 1.2-4 1.2-5.9 3.6-5.9 7.8v4.2c-.3 0-.5 0-.7 0-1.3 0-1.7.4-1.7 1.6v3.9c0 1.3.4 1.7 1.6 1.7h3.2v1.2c0 2.1 1.6 3.6 3.6 3.6h7.2c2 0 3.6-1.6 3.6-3.6 0-.4 0-.8 0-1.2h14.5v1.2c0 2.1 1.6 3.6 3.7 3.6h7.2c2 0 3.6-1.6 3.6-3.6 0-.4 0-.8 0-1.2h1.8 1.7c.8 0 1.3-.5 1.3-1.3 0-1.6 0-3.1 0-4.7 0-.8-.5-1.3-1.3-1.3-.3 0-.7 0-1.1 0 0-1.7 0-3.3 0-5-.1-3.2-2.2-6-5.3-6.8-.9-.2-1.2-.7-1.2-1.5h.4c2.1-.1 3.6-1.7 3.6-3.7s-1.6-3.6-3.7-3.6c-.6 0-1.3 0-2 0-.1-.4-.2-.8-.2-1.2h7.1v3.2c0 .7.1 1.2.8 1.5.6.2 1.1-.1 1.5-.5 1.2-1.2 2.5-2.4 3.7-3.7.4-.4.8-.6 1.4-.6h11.6c3.9 0 6.5-2.6 6.5-6.5 0-9.4 0-18.7 0-28.1 0-4-2.5-6.5-6.5-6.5-10.2.2-20.4.2-30.5.2-4 0-6.5 2.5-6.5 6.5v26.5z" fill="#fefefe"/><path d="m31.5 33.9c0-.4 0-.6 0-.9 0-8.8 0-17.6 0-26.4 0-4.1 2.5-6.6 6.5-6.6h30.5c4 0 6.5 2.5 6.5 6.5v28.1c0 3.9-2.5 6.5-6.5 6.5-3.9 0-7.7 0-11.6 0-.6 0-1 .1-1.4.6-1.2 1.3-2.4 2.5-3.7 3.7-.4.4-.9.8-1.5.5-.7-.3-.8-.8-.8-1.5 0-1.1 0-2.1 0-3.2-2.4 0-4.7 0-7.1 0 .1.4.1.7.2 1.2h2c2.1 0 3.7 1.6 3.7 3.6s-1.5 3.6-3.6 3.7c-.1 0-.3 0-.4 0 0 .8.2 1.3 1.2 1.5 3.1.8 5.2 3.6 5.3 6.8v5h1.1c.9 0 1.3.5 1.3 1.3v4.7c0 .8-.5 1.2-1.3 1.3-.6 0-1.2 0-1.7 0s-1.1 0-1.8 0v1.2c0 2-1.6 3.6-3.6 3.6-2.4 0-4.8 0-7.2 0-2.1 0-3.6-1.6-3.7-3.6 0-.4 0-.7 0-1.2-4.8 0-9.6 0-14.5 0v1.2c0 2-1.6 3.6-3.6 3.6-2.4 0-4.8 0-7.2 0-2.1 0-3.6-1.6-3.6-3.6 0-.4 0-.7 0-1.2-1.1 0-2.1 0-3.2 0-1.3 0-1.6-.4-1.6-1.7s0-2.6 0-3.9.4-1.6 1.7-1.6h.7c0-1.4 0-2.8 0-4.2 0-4.2 1.9-6.6 5.9-7.8.3-.1.5-.7.8-1.2-.7-.1-1.1-.1-1.6-.2-1.7-.4-2.9-2.1-2.7-3.9s1.7-3.2 3.5-3.2h2.1c.3-1.3.5-2.5.8-3.8.7-2.8 3-4.7 5.9-4.7h13.3zm-16.2 36.3c-2.6 0-5.3 0-8 0v1.2c.1.8.5 1.2 1.2 1.2h7.2c.7 0 1.2-.5 1.2-1.2 0-.4 0-.7 0-1.1-.6-.1-1.1-.1-1.6-.1zm21 1.1c.1.8.5 1.2 1.2 1.2h7.2c.7 0 1.2-.5 1.2-1.2 0-.4 0-.7 0-1.1-.2 0-.2-.1-.3-.1-.4 0-.9 0-1.4 0-2.6 0-5.3 0-8 0 .1.5.1.9.1 1.2zm-4.4-33.8c-.1-.4-.2-.8-.4-1.2-4.9 0-9.7 0-14.5 0-.9 0-1.8.4-2.4 1.2-.2.4-.5.7-.8 1.2h18.8c-.2-.5-.5-.8-.7-1.2zm-29.4 29v1.2h48.3c0-.8 0-1.6 0-2.3-.6 0-1.1 0-1.6 0-.1 0-.2 0-.4 0-15.2 0-30.5 0-45.7 0-.2 0-.4 0-.6 0zm22.9-24.2c0-.4 0-.8 0-1.2-4.1 0-8.1 0-12.1 0-.1.5-.2 1-.3 1.4-.5 2.3-1 4.7-1.4 7-.1.4-.2.8-.3 1.2h14.2c0-.4 0-.8 0-1.2 0-.8 0-1.6 0-2.4-.1-1.6-.1-3.2-.1-4.8zm13.3-1.2c-3.6 0-7.2 0-10.9 0v1.2 4.8 2.4 1.2h14.2c-.7-3.2-1.4-6.4-2.1-9.6-.4 0-.8 0-1.2 0zm7.3 12.8c-.8-.6-1.7-.7-2.7-.7-9.1 0-18.2 0-27.3 0-2.1 0-4.3 0-6.4 0-2.5 0-4.6 2.1-4.7 4.5-.1 1.3 0 2.6 0 3.9v1.2h12.1c0-.4 0-.8 0-1.2 0-1.5 0-3 0-4.5 0-1.1.4-1.5 1.5-1.5h16.3c1.1 0 1.5.4 1.5 1.5v4.5 1.2h12.1c0-1.7.1-3.4 0-5.1-.1-1.6-.9-3-2.4-3.8zm-12.1-18.8c0 2.1 1.6 3.6 3.7 3.6h12.9c1 0 1.5.4 1.5 1.5v1.7l2.5-2.5c.4-.5.9-.6 1.5-.6h12.5c2.6 0 4.1-1.4 4.1-4.1 0-8.2 0-16.4 0-24.6 0-1.4 0-2.7 0-4.1 0-1.6-1-2.8-2.4-3.3-.5-.1-1.1-.2-1.6-.2-10.2 0-20.4 0-30.7 0-2.6 0-4 1.5-4 4v27.9zm-.1 26.6c-4.9 0-9.7 0-14.4 0v1.1h14.4c0-.3 0-.7 0-1.1zm.1-3.6c-4.9 0-9.7 0-14.4 0v1.1h14.4c0-.4 0-.7 0-1.1zm-23.9-13.4c-.6 0-1.1 0-1.6 0-.7.1-1.1.6-1.1 1.2 0 .7.4 1.1 1.1 1.2.4.1.7 0 1.1 0 .2-.8.3-1.5.5-2.4zm33.2 0c.2.9.4 1.6.5 2.4h1c.7-.1 1.2-.5 1.2-1.2s-.5-1.2-1.2-1.2c-.4 0-.9 0-1.5 0z" fill="#010101"/><path d="m33.9 35.1c0-.2 0-.4 0-.7 0-9.3 0-18.6 0-27.9 0-2.6 1.5-4 4-4h30.7c.5 0 1.1.2 1.6.2v12.2c0 1 0 1.9-.1 2.9-.5-.9-1.5-1-2.3-1.3-1.1-.5-1.5-1.4-1.1-2.5.1-.3.2-.7.4-1 .9-2.5 1.1-2-.9-4.1-2-2-1.5-1.8-4.1-1-.8.3-1.5.2-2.3-.1-1.6-.6-2.6-1.5-3-3.2-.1-.6-.7-.9-1.3-.9-1 0-1.9 0-2.9 0-2.9 0-2.5-.3-3.6 2.4-.4 1.1-1.3 1.5-2.4 1.1-.4-.1-.7-.3-1.1-.4-2.4-.8-2-1.1-3.8.7h-.1c-.5-.1-1-.2-1.5-.2-1.6 0-2.6 1-2.6 2.6v6.9c-1 .3-1.3 1-1.2 2 .1 1.1.1 2.3 0 3.5-.1 1 .2 1.7 1.2 2 .1 1.4 1.1 2.3 2.5 2.2.8 1 .9 2.1.3 3.3-.2.4-.3.7-.3 1.1s0 .9.2 1.1c.9 1 1.9 1.9 2.9 2.8-3.1.2-6.1.3-9.2.3z" fill="#f1f1f1"/><path d="m33.9 35.1c3.1 0 6.1 0 9.2-.1.4 0 .7-.1 1.1-.1 1.5 0 3 .1 4.6.1.1 0 .1-.1.2-.1.2.6.5 1.2.8 1.8.2.6.7.9 1.3.8h4.6c.6 0 1-.3 1.3-.8.2-.6.5-1.2.8-1.8.2.1.4.2.7.2h7.3c2.3 0 4.5-2.1 4.6-4.4.1-2.4 0-4.8 0-7.2 0-1.9 0-3.8 0-5.8 0-1 .1-1.9.1-2.9 0-4.1 0-8.1.1-12.2 1.4.5 2.4 1.7 2.4 3.3v4.1 24.6c0 2.6-1.4 4.1-4.1 4.1-4.2 0-8.3 0-12.5 0-.6 0-1.1.2-1.5.6-.7.8-1.6 1.6-2.5 2.5 0-.7 0-1.2 0-1.7 0-1-.4-1.5-1.5-1.5-4.3 0-8.6 0-12.9 0-2.5.1-4.1-1.5-4.1-3.5z" fill="#cbcbcb"/><path d="m4.9 61.7c0-1.3-.1-2.6 0-3.9.1-2.5 2.2-4.5 4.7-4.5h6.4 27.3c1 0 1.9.1 2.7.7-.1 1.1-.1 2.1-.1 3.2-.7-2-2.4-3.1-4.2-2.6-1.6.4-2.8 1.7-2.9 3.3-.1 1.7.9 3.1 2.7 3.8-.2 0-.4.1-.6.1-1.5 0-3 0-4.5 0 0-1.5 0-3 0-4.5 0-1.1-.4-1.5-1.5-1.5-5.4 0-10.9 0-16.3 0-1.1 0-1.5.4-1.5 1.5v4.5c-1 0-2 0-2.9 0-.7 0-1.4-.1-2.2-.1.2-.1.4-.1.6-.2 1.7-.8 2.5-2.9 1.8-4.7s-2.7-2.7-4.6-2c-1.4.5-2.4 1.9-2.4 3.4 0 1.6 1 2.9 2.7 3.5-.2 0-.5.1-.7.1-1.5-.1-3-.1-4.5-.1z" fill="#d03f33"/><path d="m27.9 49.6c0-.8 0-1.6 0-2.4 1.4-.1 2.4-1.1 2.4-2.4 0-1.4-.9-2.3-2.4-2.4 0-.4 0-.7 0-1.2h10.9v4.8c0 1.9-1.7 3.6-3.6 3.6-2.5 0-4.9 0-7.3 0z" fill="#e3f4fc"/><path d="m25.4 47.2v2.4c-4.6 0-9.3 0-13.9 0 .5-2.3 1-4.7 1.4-7 .1-.5.2-.9.3-1.4h12.1v1.2c-2.4 0-4.7 0-7.1 0-1.5 0-2.5 1-2.6 2.4 0 1.4 1 2.4 2.6 2.5 2.5-.1 4.8-.1 7.2-.1z" fill="#e3f3fb"/><path d="m49.1 65.3h1.6v2.3c-16 0-32.1 0-48.3 0 0-.4 0-.8 0-1.2h44.7.3c.8-.1 1.5-.3 1.7-1.1z" fill="#686868"/><path d="m49.1 65.3c-.3.8-.9 1-1.7 1.2-.1 0-.2 0-.3 0-14.9 0-29.8 0-44.7 0 0-.4 0-.7 0-1.2h.6 45.7z" fill="#929292"/><path d="m25.4 47.2c-2.4 0-4.7 0-7.1 0-1.5 0-2.6-1-2.6-2.5 0-1.4 1.1-2.4 2.6-2.4h7.1z" fill="#fefefe"/><path d="m27.9 49.6h7.2c1.9 0 3.6-1.7 3.6-3.6 0-1.6 0-3.2 0-4.8h1.3c.7 3.2 1.4 6.4 2.1 9.6-4.7 0-9.4 0-14.2 0 0-.4 0-.8 0-1.2z" fill="#bae2f6"/><path d="m36.3 61.7h4.5c.2 0 .4-.1.6-.1 2.9.5 4.9-1.6 4.4-4.4.1-1.1.1-2.1.1-3.2 1.5.8 2.2 2.2 2.4 3.8.1 1.7 0 3.4 0 5.1-4 0-8 0-12.1 0 .1-.4.1-.8.1-1.2z" fill="#a82b24"/><path d="m31.9 37.5c.2.4.4.7.7 1.2-6.2 0-12.4 0-18.8 0 .3-.4.6-.8.8-1.2z" fill="#a92b24"/><path d="m31.9 37.5c-5.8 0-11.5 0-17.3 0 .6-.8 1.5-1.2 2.4-1.2h14.5c.2.4.3.8.4 1.2z" fill="#d14034"/><path d="m33.8 61.7v1.1c-4.8 0-9.6 0-14.4 0 0-.3 0-.7 0-1.1z" fill="#f2a745"/><path d="m33.9 58.1v1.1c-4.8 0-9.6 0-14.4 0 0-.4 0-.7 0-1.1z" fill="#f2a745"/><path d="m11.5 49.6h13.9v1.2c-4.7 0-9.4 0-14.2 0 .1-.4.2-.8.3-1.2z" fill="#bbe3f7"/><path d="m11.8 61.6c.7 0 1.4.1 2.2.1h2.9v1.2c-4 0-8 0-12.1 0 0-.4 0-.8 0-1.2h4.5c.2 0 .4-.1.6-.1z" fill="#a92b24"/><path d="m44.3 70.2h1.4c.1 0 .1 0 .3.1v1.1c0 .8-.5 1.2-1.2 1.2-2.4 0-4.8 0-7.2 0-.8 0-1.1-.4-1.2-1.2h6c.8-.1 1.5-.4 1.9-1.2z" fill="#676767"/><path d="m15.3 70.2h1.7v1.1c0 .8-.5 1.2-1.2 1.2-2.4 0-4.8 0-7.2 0-.8 0-1.1-.4-1.2-1.2h6c.8 0 1.5-.3 1.9-1.1z" fill="#676767"/><path d="m27.9 42.3c1.4.1 2.4 1.1 2.4 2.4s-1 2.3-2.4 2.4c0-1.6 0-3.2 0-4.8z" fill="#fefefe"/><path d="m15.3 70.2c-.4.9-1.1 1.2-2 1.2-2 0-4 0-6 0 0-.4 0-.7 0-1.2z" fill="#929292"/><path d="m44.3 70.2c-.4.9-1.1 1.2-2 1.2-2 0-4 0-6 0 0-.4 0-.7 0-1.2z" fill="#929292"/><path d="m10 44.7c-.2.8-.3 1.6-.5 2.4-.4 0-.8 0-1.1 0-.7-.1-1-.5-1.1-1.2 0-.6.4-1.2 1.1-1.2z" fill="#a42a23"/><path d="m43.2 44.7h1.6c.7 0 1.2.5 1.2 1.2s-.5 1.2-1.2 1.2c-.3 0-.6 0-1 0-.2-.7-.4-1.5-.6-2.4z" fill="#a42a23"/><path d="m44.2 34.9c-.4 0-.7.1-1.1.1-1-.9-2-1.9-2.9-2.8-.2-.3-.2-.8-.2-1.1 0-.4.2-.8.3-1.1.6-1.2.5-2.3-.3-3.3-.3-.5-.4-1.2-.9-1.6s-1.1-.5-1.6-.7c-1-.3-1.3-1-1.2-2 .1-1.1.1-2.3 0-3.5-.1-1 .2-1.7 1.2-2 .3-.1.6-.2.8-.3.5-.2 1.1-.3 1.3-1 .3-.9 1-1.7 1.1-2.6s-.6-1.9-.7-2.8c-.1-.4.1-.9.4-1.3.3-.5.8-.9 1.2-1.3h.1c1.8-1.8 1.4-1.6 3.8-.7.4.1.7.3 1.1.4 1.1.2 2-.3 2.4-1.3 1.1-2.6.6-2.4 3.6-2.4h2.9c.7 0 1.2.3 1.3.9.4 1.6 1.4 2.6 3 3.2.8.3 1.5.4 2.3.1 2.6-.8 2.1-1 4.1 1s1.8 1.5.9 4.1c-.1.3-.2.7-.4 1-.4 1.1 0 2 1.1 2.5.8.4 1.8.4 2.3 1.3v5.8c-.7.4-1.4.9-2.2 1.2-1.3.6-1.6 1.4-1.2 2.6.1.4.2.8.4 1.1.8 1.5.5 2.5-.7 3.6-2.4 2.2-1.6 2-4.6 1.1-.7-.2-1.2-.3-1.8.1s-1.2.5-1.8.8c-.2.1-.4.4-.6.7-.2.6-.5 1.2-.8 1.8-.2.6-.7.9-1.3.8-1.5 0-3.1 0-4.6 0-.6 0-1-.3-1.3-.8-.2-.6-.5-1.2-.8-1.8-.1-.2-.1-.5-.2-.5-.6-.2-1.2-.7-2-.4-.7.6-1.6.8-2.4 1.1zm16.4-4.6c.7.2 1.3.3 1.9.6.9.5 1.6.2 2.2-.6.3-.3.4-.6.2-1-.3-.8-.6-1.6-.8-2.3-.1-.3-.1-.7-.1-.9.5-1.7 1.2-3.3 3.2-3.7.2 0 .4-.4.4-.7.1-.7 0-1.4 0-2 0-.5-.1-.7-.6-.9-1.4-.4-2.5-1.1-2.7-2.7 0-.2-.2-.3-.2-.5 0-.6-.1-1.1 0-1.6.2-.8.5-1.5.8-2.3.1-.2.1-.5-.1-.7-.7-1.1-1-1.2-2.3-.8-.4.1-.8.2-1.2.4-.6.2-1.1.1-1.6-.2-.8-.5-1.6-.9-2.5-1.2-1-.3-1.5-.9-1.9-1.8-.5-1.4-.6-1.4-2.1-1.4-1.7 0-1.7 0-2.4 1.6-.2.4-.5 1-.9 1.2-1.6.7-3.2 1.4-4.9.3 0 0-.1 0-.1-.1-.8-.5-1.4-.3-2.1.4-.4.5-.4.8-.2 1.3s.4 1.1.5 1.7c.1.5 0 1-.2 1.5-.4 1-.9 2-1.4 3-.2.4-.6 1-1.1 1.1-1.7.4-2.1 1.4-1.9 3.1.1.8.2 1.2 1 1.4 1.2.3 2.1.9 2.3 2.3.1.4.2.7.5 1 1.2 1.4 1 2.9.3 4.5-.2.5-.1.8.3 1.2.6.7 1.2.9 2 .4 1.4-.7 2.8-.9 4.4-.1.8.4 1.4.8 1.7 1.7.6 1.5.6 1.5 2.2 1.5s1.7 0 2.2-1.5c.3-.8.8-1.3 1.7-1.6s1.8-.8 2.7-1.2c.3-.1.5-.3.8-.4z" fill="#030303"/><path d="m41.6 7.5c-.4.4-.9.8-1.2 1.3-.2.4-.4.9-.4 1.3.2.9.8 1.9.7 2.8s-.8 1.7-1.1 2.6c-.2.7-.8.8-1.3 1-.3.1-.6.2-.8.3 0-2.3 0-4.6 0-6.9 0-1.6 1-2.6 2.6-2.6.5 0 1 .1 1.5.2z" fill="#fcfcfc"/><path d="m37.5 24.3c.6.2 1.2.3 1.6.7s.6 1 .9 1.6c-1.4 0-2.4-.9-2.5-2.3z" fill="#f9f9f9"/><path d="m57.6 34.9c.2-.2.4-.5.6-.7.6-.3 1.3-.5 1.8-.8.6-.4 1.2-.3 1.8-.1 3 .9 2.2 1.1 4.6-1.1 1.2-1.1 1.6-2.2.7-3.6-.2-.3-.3-.7-.4-1.1-.5-1.3-.1-2.1 1.2-2.6.7-.3 1.5-.8 2.2-1.2 0 2.4.1 4.8 0 7.2-.1 2.3-2.3 4.4-4.6 4.4-2.4 0-4.9 0-7.3 0-.2-.2-.4-.4-.6-.4z" fill="#efefef"/><path d="m44.2 34.9c.8-.3 1.7-.6 2.5-.9.8-.4 1.3.1 2 .4.1.1.2.3.2.5-.1.1-.1.1-.2.1-1.5 0-3 0-4.5-.1z" fill="#ebebeb"/><path d="m11.8 61.6c-.6 0-1.2 0-1.8 0-1.7-.6-2.7-1.9-2.7-3.5 0-1.5 1-2.9 2.4-3.4 1.8-.6 3.8.2 4.6 2 .7 1.8-.1 3.8-1.8 4.7-.3 0-.5.1-.7.2zm-.9-2.4c.7 0 1.2-.5 1.2-1.2s-.5-1.2-1.2-1.2-1.2.5-1.2 1.2.5 1.2 1.2 1.2z" fill="#020101"/><path d="m45.9 57.1c.5 2.9-1.6 4.9-4.4 4.4-1.8-.7-2.8-2.1-2.7-3.8.1-1.6 1.3-2.9 2.9-3.3 1.7-.3 3.4.8 4.2 2.7zm-2.4 1c0-.7-.5-1.2-1.2-1.2s-1.2.5-1.2 1.2.5 1.2 1.2 1.2 1.2-.6 1.2-1.2z" fill="#020101"/><path d="m60.6 30.3c-.2.1-.5.2-.8.4-.9.4-1.7.9-2.7 1.2-.9.3-1.3.7-1.7 1.6-.6 1.6-.6 1.5-2.2 1.5s-1.6 0-2.2-1.5c-.3-.8-.9-1.2-1.7-1.7-1.6-.8-2.9-.6-4.4.1-.8.4-1.4.3-2-.4-.4-.4-.5-.7-.3-1.2.7-1.6.9-3.1-.3-4.5-.2-.3-.4-.7-.5-1-.2-1.4-1.1-2-2.3-2.3-.7-.2-.9-.6-1-1.4-.2-1.6.2-2.6 1.9-3.1.4-.1.8-.7 1.1-1.1.5-1 1-2 1.4-3 .2-.4.2-1 .2-1.5-.1-.6-.3-1.1-.5-1.7-.2-.5-.2-.9.2-1.3.6-.7 1.3-.9 2.1-.4 0 0 .1 0 .1.1 1.7 1.1 3.3.4 4.9-.3.4-.2.7-.7.9-1.2.7-1.6.7-1.6 2.4-1.6 1.5 0 1.5 0 2.1 1.4.4.9.9 1.5 1.9 1.8.9.3 1.7.7 2.5 1.2.5.3 1 .4 1.6.2.4-.1.8-.2 1.2-.4 1.3-.4 1.6-.3 2.3.8.1.2.1.5.1.7-.2.8-.6 1.5-.8 2.3-.1.5 0 1.1.1 1.6 0 .2.2.3.2.5.2 1.6 1.3 2.3 2.7 2.7.5.1.6.4.6.9v2c0 .2-.2.7-.4.7-2.1.4-2.7 2-3.2 3.7-.1.3 0 .7.1.9.2.8.5 1.6.8 2.3.2.4.1.7-.2 1-.6.8-1.3 1-2.2.6-.7-.3-1.3-.4-2-.6zm3.5-9.7c0-5.9-4.9-10.9-10.8-10.9-6.1 0-11 4.8-11 10.8s4.8 10.9 10.9 10.9c6 0 10.9-4.8 10.9-10.8z" fill="#666"/><path d="m10.9 59.2c-.7 0-1.2-.5-1.2-1.2s.6-1.2 1.2-1.2c.7 0 1.2.6 1.2 1.2 0 .7-.6 1.3-1.2 1.2z" fill="#e3bc57"/><path d="m43.5 58.1c0 .7-.6 1.2-1.2 1.2-.7 0-1.2-.5-1.2-1.2s.6-1.2 1.2-1.2c.7 0 1.3.5 1.2 1.2z" fill="#e3bc57"/><path d="m64.1 20.6c0 6-4.9 10.9-10.9 10.9s-10.9-4.9-10.9-10.9 4.9-10.8 11-10.8c5.9-.1 10.8 4.8 10.8 10.8zm-10.9 8.4c4.7 0 8.5-3.8 8.5-8.5 0-4.6-3.9-8.4-8.5-8.4-4.7 0-8.4 3.8-8.4 8.6 0 4.5 3.8 8.3 8.4 8.3z" fill="#020202"/><path d="m53.2 29c-4.6 0-8.4-3.8-8.5-8.4 0-4.7 3.7-8.5 8.4-8.6 4.6 0 8.5 3.8 8.5 8.4.1 4.8-3.7 8.6-8.4 8.6z" fill="#fdfdfd"/></svg>