<svg id="Capa_1" enable-background="new 0 0 512 512" height="512" viewBox="0 0 512 512" width="512" xmlns="http://www.w3.org/2000/svg"><g><g><path d="m191.813 41.458c0 22.86 18.598 41.458 41.458 41.458l14.857-41.458-14.858-41.458c-22.86 0-41.457 18.598-41.457 41.458z" fill="#fed943"/><path d="m274.728 41.458c0-22.86-18.598-41.458-41.458-41.458v82.915c22.86 0 41.458-18.597 41.458-41.457z" fill="#fcbe2c"/><g><path d="m147.522 439.612c3.215 18.985 12.633 36.385 26.978 49.535 16.076 14.737 36.948 22.853 58.77 22.853l20.729-37.041-20.729-35.347z" fill="#fd3e81"/><path d="m233.27 439.612v72.388c21.822 0 42.694-8.116 58.771-22.854 14.345-13.15 23.763-30.55 26.978-49.535h-85.749z" fill="#e50070"/></g><g><path d="m90.144 220.232v16.261l143.126 41.541 26.906-105.637-26.906-95.292c-78.92 0-143.126 64.207-143.126 143.127z" fill="#ffee42"/><path d="m376.397 236.493v-16.261c0-78.92-64.206-143.126-143.126-143.126v200.928z" fill="#fed943"/><path d="m90.144 323.214v8.498c0 46.873-38.134 85.006-85.006 85.006v30h228.132l26.906-71.322-26.906-71.322z" fill="#ffee42"/><path d="m461.403 416.717c-46.873 0-85.006-38.133-85.006-85.006v-8.498l-138.178-19.803-4.949.662v142.644h228.133z" fill="#fed943"/></g><g><path d="m90.144 236.493v86.721h143.126l26.906-40.152-26.906-46.569z" fill="#c4e83b"/><path d="m233.27 236.493h143.126v86.721h-143.126z" fill="#9ddb2c"/></g></g><g><g><path d="m349.693 0v40.622c-15.209 4.138-28.995 11.722-40.471 21.865l-33.976-22.312-29.316 44.642 33.954 22.297c-3.221 9.897-4.969 20.459-4.969 31.431s1.748 21.534 4.969 31.431l-33.954 22.297 29.316 44.642 33.976-22.311c11.476 10.143 25.262 17.727 40.471 21.865v40.622h26.704l25.584-133.628-25.584-143.463z" fill="#453f81"/></g><path d="m477.878 138.546c0-10.972-1.748-21.534-4.969-31.431l33.954-22.297-29.315-44.642-33.976 22.312c-11.476-10.144-25.263-17.728-40.472-21.866v-40.622h-26.704v277.091h26.704v-40.622c15.209-4.138 28.995-11.722 40.471-21.865l33.976 22.312 29.315-44.642-33.954-22.297c3.222-9.897 4.97-20.459 4.97-31.431z" fill="#2d2854"/><g><path d="m331.109 138.546c0 25.012 20.276 45.288 45.288 45.288l14.384-45.288-14.384-45.288c-25.012 0-45.288 20.276-45.288 45.288z" fill="#6058ad"/></g><path d="m376.397 93.258v90.575c25.012 0 45.288-20.276 45.288-45.288s-20.277-45.287-45.288-45.287z" fill="#453f81"/></g></g></svg>