<svg xmlns="http://www.w3.org/2000/svg" width="200.337" height="196.127" viewBox="0 0 200.337 196.127"><g transform="translate(-107 -109)"><path d="M99.8,222.481V52.068H234.842V212.835a9.645,9.645,0,0,1-9.646,9.646Z" transform="translate(72.495 82.646)" fill="#ffe132"/><path d="M146.73,51.445a11.254,11.254,0,0,1-11.254-11.254V28.938h6.431V40.192a4.823,4.823,0,0,0,9.646,0h0V16.077a9.646,9.646,0,0,0-19.292,0v3.215H125.83V16.077a16.077,16.077,0,1,1,32.154,0V40.192A11.253,11.253,0,0,1,146.73,51.445Z" transform="translate(56.108 115.422)" fill="#fff199"/><g transform="translate(239.814 227.959)"><path d="M282.034,338.441h54.661v6.431H282.034Z" transform="translate(-282.034 -325.58)" fill="#fff8cc"/><path d="M282.034,373.153h54.661v6.431H282.034Z" transform="translate(-282.034 -347.43)" fill="#fff8cc"/><path d="M282.034,407.864h41.8v6.431h-41.8Z" transform="translate(-282.034 -369.28)" fill="#fff8cc"/><path d="M342.78,303.729h32.154v6.431H342.78Z" transform="translate(-320.273 -303.729)" fill="#fff8cc"/></g><path d="M22.507,0A22.507,22.507,0,1,1,0,22.507,22.507,22.507,0,0,1,22.507,0Z" transform="translate(246.245 160.436)" fill="#fff8cc"/><path d="M134.508,182.237h6.431V207.96h-6.431Z" transform="translate(50.645 0.707)" fill="#ffee7f"/><path d="M169.22,199.593h6.431v19.292H169.22Z" transform="translate(28.795 -10.218)" fill="#fff199"/><path d="M203.932,164.881h6.431v32.154h-6.431Z" transform="translate(6.944 11.632)" fill="#ffee7f"/><path d="M238.644,190.915h6.431v22.507h-6.431Z" transform="translate(-14.907 -4.756)" fill="#fff199"/><path d="M143.186,312.407H181.77v38.584H143.186Z" transform="translate(45.182 -81.233)" fill="#fff5b2"/><path d="M308.068,303.729H314.5v6.431h-6.431Z" transform="translate(-58.608 -75.77)" fill="#e9f3bd"/><path d="M380.251,133.942a22.5,22.5,0,0,0-20.115-12.45V144Z" transform="translate(-91.384 38.945)" fill="#fff"/><g transform="translate(153 160.437)"><path d="M321.892,121.492a22.506,22.506,0,0,0-15.916,38.423L321.892,144Z" transform="translate(-206.14 -121.492)" fill="#fff5b2"/><path d="M192.419,484.687a9.645,9.645,0,0,1-9.646-9.646h0V468.61H47.729v6.431a9.646,9.646,0,0,0,9.646,9.646H192.419Z" transform="translate(-47.729 -339.997)" fill="#fff199"/></g><circle cx="51.5" cy="51.5" r="51.5" transform="translate(107 109)" fill="#fffbe5"/><path d="M70.6,231.409H57.675V204.4l6.464-5.112L70.6,204.4Z" transform="translate(74.04 -46.338)" fill="#ffee7f"/><path d="M112.464,224.165H106V190.928l6.464,6.23Z" transform="translate(32.179 -39.093)" fill="#ffee7f"/><path d="M221.43,181.659H208.8V152.234l6.313-6.313,6.313-4.063Z" transform="translate(-56.872 3.413)" fill="#ffe74c"/><path d="M262.313,181.659H256V145.921l6.313-4.063Z" transform="translate(-97.755 3.413)" fill="#ffe74c"/><path d="M371.816,159.059H359.33V115.768l6.243,6.018,6.243-6.018Z" transform="translate(-187.263 26.013)" fill="#ffe132"/><path d="M412.243,159.059H406V121.786l6.243-6.018Z" transform="translate(-227.69 26.013)" fill="#ffe132"/><g transform="translate(124 183.065)"><path d="M0,424.4H68.489v4.013H0Z" transform="translate(0 -424.396)" fill="#fcdc24"/></g><g transform="translate(158.245 183.065)"><path d="M256,424.4h34.245v4.013H256Z" transform="translate(-256 -424.396)" fill="#fcdc24"/></g><g transform="translate(124.788 135.595)"><path d="M8.731,98.56,5.894,95.722l12.8-12.8,9.08,9.08L50.24,69.535,59.6,78.89l9.366-9.366L71.8,72.362l-12.2,12.2L50.24,75.21,27.769,97.681,18.69,88.6Z" transform="translate(-5.894 -69.524)" fill="#ffda00"/></g><path d="M276.49,57.6v4.013h6.7l-6.948,6.948-9.355-9.355L256,70.1v5.675l10.89-10.89,9.355,9.355,9.785-9.786v6.7h4.013V57.6Z" transform="translate(-97.755 76.396)" fill="#ffda00"/></g></svg>