<svg enable-background="new 0 0 75 92.2" viewBox="0 0 75 92.2" xmlns="http://www.w3.org/2000/svg"><g transform="translate(-47.729)"><path d="m56.7 92.2v-83.2h66v78.5c0 2.6-2.1 4.7-4.7 4.7z" fill="#e65a5e"/><path d="m71.7 23.9c-2.9 0-5.2-2.3-5.2-5.2v-5.2h3v5.2c0 1.2 1 2.2 2.2 2.2s2.2-1 2.2-2.2v-11.2c0-2.5-2-4.5-4.5-4.5-2.4 0-4.4 2-4.4 4.5v1.5h-3v-1.5c-.1-4.1 3.2-7.5 7.3-7.6 4.1-.1 7.5 3.2 7.6 7.3v.3 11.2c0 2.9-2.3 5.2-5.2 5.2z" fill="#ee9193"/><g fill="#f6c8c9" transform="translate(63.445 19.962)"><path d="m27.9 41.5h25.4v3h-25.4z"/><path d="m27.9 47.5h25.4v3h-25.4z"/><path d="m27.9 53.4h19.4v3h-19.4z"/><path d="m38.4 35.5h14.9v3h-14.9z"/></g><path d="m104.8 22.2c5.8 0 10.4 4.7 10.4 10.4s-4.7 10.4-10.4 10.4c-5.8 0-10.4-4.7-10.4-10.4 0-5.7 4.6-10.4 10.4-10.4z" fill="#fceced"/><path d="m63.4 33.1h3v11.9h-3z" fill="#f1a3a5"/><path d="m69.7 36.2h3v9h-3z" fill="#ee9193"/><path d="m75.9 30h3v14.9h-3z" fill="#f1a3a5"/><path d="m82.2 34.6h3v10.4h-3z" fill="#ee9193"/><path d="m65.2 56.9h17.9v17.9h-17.9z" fill="#f9dadb"/><path d="m94.7 54.8h3v3h-3z" fill="#ee9193"/><path d="m114.2 27.8c-1.8-3.5-5.4-5.8-9.3-5.8v10.4z" fill="#fff"/><g transform="translate(47.729 9.008)"><path d="m56.3 16.1c-5.8 0-10.4 4.7-10.4 10.4 0 2.8 1.1 5.4 3.1 7.4l7.4-7.4v-10.4z" fill="#f9dadb"/><path d="m70.5 83.2c-2.5.1-4.6-1.9-4.7-4.5v-3h-65.8v3c.1 2.5 2.2 4.5 4.7 4.5z" fill="#ee9193"/></g></g></svg>