<svg xmlns="http://www.w3.org/2000/svg" width="52" height="30.483" viewBox="0 0 52 30.483">
  <g id="report_group_vehicule" transform="translate(-111 -122.103)">
    <g id="Group_3" data-name="Group 3" transform="translate(145.857 132.778)">
      <g id="Group_2" data-name="Group 2" transform="translate(0)">
        <path id="Path_1" data-name="Path 1" d="M291.5,55.065H286v1.161h5.5a.58.58,0,1,0,0-1.161Z" transform="translate(-274.941 -52.936)" fill="#b359f9"/>
        <path id="Path_2" data-name="Path 2" d="M198.188,308.631h-3.637a.58.58,0,0,0-.58.58v5.146a2.138,2.138,0,0,0,2.135,2.137h.528a2.138,2.138,0,0,0,2.135-2.137v-5.147a.58.58,0,0,0-.58-.58Z" transform="translate(-186.47 -296.697)" fill="#544e55"/>
        <path id="Path_3" data-name="Path 3" d="M142.167,110.131h-1.9A3.672,3.672,0,0,0,136.6,113.8v5.823a1.172,1.172,0,0,0,1.171,1.171h6.893a1.172,1.172,0,0,0,1.171-1.171V113.8a3.672,3.672,0,0,0-3.668-3.668Z" transform="translate(-131.318 -105.872)" fill="#a63ef8"/>
        <path id="Path_4" data-name="Path 4" d="M75.559,55.065H69.231a.58.58,0,1,0,0,1.161h6.328Z" transform="translate(-65.996 -52.936)" fill="#ff3f61"/>
        <path id="Path_5" data-name="Path 5" d="M123.334,242.063H123.1a5.229,5.229,0,0,0-5.222,5.222v.141a1.468,1.468,0,0,0,1.467,1.467h7.749a1.468,1.468,0,0,0,1.467-1.467v-.141a5.229,5.229,0,0,0-5.222-5.222Z" transform="translate(-113.316 -232.703)" fill="#8d24f7"/>
        <path id="Path_6" data-name="Path 6" d="M257.819,308.632h-1.432L256,312.888V316.5h.264a2.138,2.138,0,0,0,2.135-2.137v-5.147A.58.58,0,0,0,257.819,308.632Z" transform="translate(-246.101 -296.697)" fill="#665e68"/>
        <path id="Path_7" data-name="Path 7" d="M256.949,110.131h-.563L256,111.292v3.942l.387,5.56h3.06a1.172,1.172,0,0,0,1.171-1.171V113.8A3.672,3.672,0,0,0,256.949,110.131Z" transform="translate(-246.101 -105.872)" fill="#b359f9"/>
        <path id="Path_8" data-name="Path 8" d="M126.175,2.515l-.454-.417a7.086,7.086,0,0,0-9.583,0l-.454.417a.58.58,0,0,0,0,.855l.454.417a7.069,7.069,0,0,0,4.792,1.865,7.069,7.069,0,0,0,4.791-1.865l.454-.417a.58.58,0,0,0,0-.855Z" transform="translate(-111.03 -0.224)" fill="#9924f7"/>
        <path id="Path_9" data-name="Path 9" transform="translate(0 0)" fill="#c60149"/>
        <path id="Path_10" data-name="Path 10" d="M256.118,242.063H256v6.831h3.875a1.468,1.468,0,0,0,1.467-1.467v-.141a5.229,5.229,0,0,0-5.222-5.222Z" transform="translate(-246.101 -232.703)" fill="#9924f7"/>
        <path id="Path_11" data-name="Path 11" d="M260.791,1.865A7.069,7.069,0,0,0,256,0l1.934,2.728L256,5.419a7.069,7.069,0,0,0,4.791-1.865l.454-.417a.58.58,0,0,0,0-.855Z" transform="translate(-246.101 0)" fill="#a63ef8"/>
        <g id="Group_1" data-name="Group 1" transform="translate(7.195 0.009)">
          <path id="Path_12" data-name="Path 12" d="M188.81.234H188.7a2.655,2.655,0,0,0-2.652,2.652v.106A2.655,2.655,0,0,0,188.7,5.644h.105a2.655,2.655,0,0,0,2.652-2.652V2.886A2.655,2.655,0,0,0,188.81.234Z" transform="translate(-186.053 -0.234)" fill="#e6f2ff"/>
          <path id="Path_13" data-name="Path 13" d="M256.053.234H256v5.41h.053A2.655,2.655,0,0,0,258.7,2.992V2.886A2.655,2.655,0,0,0,256.053.234Z" transform="translate(-253.295 -0.234)" fill="#cce6ff"/>
        </g>
      </g>
    </g>
    <g id="Group_16" data-name="Group 16" transform="translate(111 128.312)">
      <g id="Group_4" data-name="Group 4" transform="translate(30.538 7.29)">
        <path id="Path_14" data-name="Path 14" d="M457.666,183.806h-2.392a1,1,0,0,0-.431.1q.025.4.025.8v1.982a5.023,5.023,0,0,1,.843.932h1.956a1.017,1.017,0,0,0,1.014-1.014V184.82A1.017,1.017,0,0,0,457.666,183.806Z" transform="translate(-454.843 -183.806)" fill="#dfebfa"/>
      </g>
      <g id="Group_5" data-name="Group 5" transform="translate(30.538 7.29)">
        <path id="Path_15" data-name="Path 15" d="M456.49,186.6V184.82a1.017,1.017,0,0,1,1.014-1.014h-2.233a1,1,0,0,0-.431.1q.025.4.025.8v1.982a5.021,5.021,0,0,1,.843.932h1.8a1.017,1.017,0,0,1-1.014-1.014Z" transform="translate(-454.84 -183.806)" fill="#b1dbfc"/>
        <path id="Path_16" data-name="Path 16" d="M455.215,226.707Z" transform="translate(-455.19 -223.827)" fill="#b1dbfc"/>
      </g>
      <g id="Group_6" data-name="Group 6" transform="translate(0 7.29)">
        <path id="Path_17" data-name="Path 17" d="M3.267,186.686V184.7c0-.3.012-.6.033-.9H1.014A1.017,1.017,0,0,0,0,184.82V186.6a1.017,1.017,0,0,0,1.014,1.014h1.41a5.022,5.022,0,0,1,.843-.932Z" transform="translate(0 -183.806)" fill="#dfebfa"/>
      </g>
      <path id="Path_18" data-name="Path 18" d="M1.65,186.6V184.82a1.017,1.017,0,0,1,1.014-1.014H1.014A1.017,1.017,0,0,0,0,184.82V186.6a1.017,1.017,0,0,0,1.014,1.014h1.41l.018-.025a1.018,1.018,0,0,1-.793-.989Z" transform="translate(0 -176.516)" fill="#b1dbfc"/>
      <g id="Group_7" data-name="Group 7" transform="translate(3.129 0)">
        <path id="Path_19" data-name="Path 19" d="M49.824,84.28H70.949a4.907,4.907,0,0,1,3.224,1.212v-2a11.113,11.113,0,0,0-1.436-5.67,4.667,4.667,0,0,0-3.893-2.59H51.929a4.667,4.667,0,0,0-3.893,2.59,11.119,11.119,0,0,0-1.436,5.67v2a4.907,4.907,0,0,1,3.224-1.212Z" transform="translate(-46.6 -75.232)" fill="#a63ef8"/>
      </g>
      <g id="Group_8" data-name="Group 8" transform="translate(3.129 0)">
        <path id="Path_20" data-name="Path 20" d="M48.824,83.493a11.113,11.113,0,0,1,1.436-5.67,4.667,4.667,0,0,1,3.893-2.59H51.929a4.667,4.667,0,0,0-3.893,2.59,11.117,11.117,0,0,0-1.436,5.67v2a4.938,4.938,0,0,1,2.224-1.108Z" transform="translate(-46.6 -75.233)" fill="#8d24f7"/>
      </g>
      <g id="Group_9" data-name="Group 9" transform="translate(4.873 1.76)">
        <path id="Path_21" data-name="Path 21" d="M74.072,108.743H95.2a4.878,4.878,0,0,1,1.479.229v-1.016a9.332,9.332,0,0,0-1.182-4.754,3.026,3.026,0,0,0-2.4-1.746H76.177a3.025,3.025,0,0,0-2.4,1.746,9.333,9.333,0,0,0-1.182,4.754v1.016A4.877,4.877,0,0,1,74.072,108.743Z" transform="translate(-72.593 -101.456)" fill="#e5c7fd"/>
      </g>
      <g id="Group_10" data-name="Group 10" transform="translate(4.874 1.761)">
        <path id="Path_22" data-name="Path 22" d="M74.819,107.96A9.332,9.332,0,0,1,76,103.206a3.026,3.026,0,0,1,2.4-1.746H76.179a3.025,3.025,0,0,0-2.4,1.746,9.333,9.333,0,0,0-1.182,4.754v1.016a4.878,4.878,0,0,1,1.479-.229h.746v-.788Z" transform="translate(-72.595 -101.46)" fill="#cc90fb"/>
      </g>
      <path id="Path_23" data-name="Path 23" d="M46.857,208.815H25.732a4.972,4.972,0,0,0-4.959,4.959v5.071a.829.829,0,0,1,.23-.033H32.549a.837.837,0,0,1,.67-.338h6.148a.837.837,0,0,1,.67.338H51.584a.828.828,0,0,1,.23.033v-5.071a4.972,4.972,0,0,0-4.959-4.959Z" transform="translate(-19.379 -199.846)" fill="#a63ef8"/>
      <g id="Group_11" data-name="Group 11" transform="translate(1.394 8.968)">
        <path id="Path_24" data-name="Path 24" d="M24.029,213.773a4.972,4.972,0,0,1,4.959-4.959H25.732a4.972,4.972,0,0,0-4.959,4.959v5.071a.829.829,0,0,1,.23-.033h3.024Z" transform="translate(-20.773 -208.814)" fill="#8d24f7"/>
      </g>
      <path id="Path_25" data-name="Path 25" d="M143.545,213.66A2.643,2.643,0,0,0,145.8,212.4l2.194-3.58H131.87l2.194,3.58a2.643,2.643,0,0,0,2.253,1.262Z" transform="translate(-123.016 -199.85)" fill="#bf75fa"/>
      <path id="Path_26" data-name="Path 26" d="M137.056,212.4l-2.194-3.58H131.87l2.194,3.58a2.643,2.643,0,0,0,2.253,1.262h2.992a2.643,2.643,0,0,1-2.253-1.262Z" transform="translate(-123.016 -199.85)" fill="#b359f9"/>
      <g id="Group_12" data-name="Group 12" transform="translate(12.294 15.238)">
        <path id="Path_27" data-name="Path 27" d="M191.839,303.237h-8.2a.519.519,0,1,1,0-1.037h8.2a.519.519,0,1,1,0,1.037Z" transform="translate(-183.116 -302.2)" fill="#e5c7fd"/>
      </g>
      <path id="Path_28" data-name="Path 28" d="M2.022,0A2.022,2.022,0,1,1,0,2.022,2.022,2.022,0,0,1,2.022,0Z" transform="translate(25.946 11.921)" fill="#e5c7fd"/>
      <circle id="Ellipse_1" data-name="Ellipse 1" cx="2.022" cy="2.022" r="2.022" transform="translate(3.84 11.921)" fill="#e5c7fd"/>
      <path id="Path_29" data-name="Path 29" d="M388.449,254.808a2.021,2.021,0,0,1,1.02-1.756,2.022,2.022,0,1,0,0,3.511A2.021,2.021,0,0,1,388.449,254.808Z" transform="translate(-360.497 -240.865)" fill="#bf75fa"/>
      <path id="Path_30" data-name="Path 30" d="M59.2,254.808a2.021,2.021,0,0,1,1.02-1.756,2.022,2.022,0,1,0,0,3.511,2.021,2.021,0,0,1-1.02-1.756Z" transform="translate(-53.354 -240.865)" fill="#bf75fa"/>
      <g id="Group_13" data-name="Group 13" transform="translate(25.19 21.029)">
        <path id="Path_31" data-name="Path 31" d="M375.182,388.443v2.218a1.03,1.03,0,0,0,1.027,1.027h4.544a1.03,1.03,0,0,0,1.027-1.027v-2.218Z" transform="translate(-375.182 -388.443)" fill="#665e68"/>
      </g>
      <path id="Path_32" data-name="Path 32" d="M378.209,390.66v-2.218h-3.024v2.218a1.03,1.03,0,0,0,1.027,1.027h3.024a1.03,1.03,0,0,1-1.027-1.027Z" transform="translate(-349.995 -367.413)" fill="#544e55"/>
      <g id="Group_14" data-name="Group 14" transform="translate(2.043 21.029)">
        <path id="Path_33" data-name="Path 33" d="M30.425,388.443v2.218a1.03,1.03,0,0,0,1.027,1.027H36a1.03,1.03,0,0,0,1.027-1.027v-2.218Z" transform="translate(-30.425 -388.443)" fill="#665e68"/>
      </g>
      <path id="Path_34" data-name="Path 34" d="M33.452,390.66v-2.218H30.428v2.218a1.03,1.03,0,0,0,1.027,1.027h3.024A1.03,1.03,0,0,1,33.452,390.66Z" transform="translate(-28.385 -367.413)" fill="#544e55"/>
      <path id="Path_35" data-name="Path 35" d="M24.015,354.657v-1.619a.832.832,0,0,1,.167-.5H12.567a.84.84,0,0,0-.838.838v.942a.84.84,0,0,0,.838.838H24.181a.832.832,0,0,1-.167-.5Z" transform="translate(-10.941 -333.92)" fill="#dfebfa"/>
      <path id="Path_36" data-name="Path 36" d="M14.756,354.316v-.943a.84.84,0,0,1,.838-.838H12.57a.84.84,0,0,0-.838.838v.942a.84.84,0,0,0,.838.838h3.025A.84.84,0,0,1,14.756,354.316Z" transform="translate(-10.944 -333.917)" fill="#b1dbfc"/>
      <path id="Path_37" data-name="Path 37" d="M318.292,352.536H306.678a.831.831,0,0,1,.167.5v1.619a.832.832,0,0,1-.167.5h11.615a.84.84,0,0,0,.838-.838v-.943a.84.84,0,0,0-.838-.838Z" transform="translate(-286.087 -333.917)" fill="#dfebfa"/>
      <path id="Path_38" data-name="Path 38" d="M197.983,350.791H191.42a.84.84,0,0,1-.838-.838v-1.619a.84.84,0,0,1,.838-.838h6.563a.84.84,0,0,1,.838.838v1.619A.84.84,0,0,1,197.983,350.791Z" transform="translate(-177.786 -329.216)" fill="#b1dbfc"/>
      <path id="Path_39" data-name="Path 39" d="M193.609,349.953v-1.619a.84.84,0,0,1,.838-.838h-3.024a.84.84,0,0,0-.838.838v1.619a.84.84,0,0,0,.838.838h3.024A.84.84,0,0,1,193.609,349.953Z" transform="translate(-177.789 -329.216)" fill="#8bcaff"/>
      <path id="Path_40" data-name="Path 40" d="M291.482,144.519a3.849,3.849,0,0,0-3.844,3.878,3.932,3.932,0,0,0,.035.518h1.752a2.163,2.163,0,0,1-.063-.518,2.122,2.122,0,1,1,4.244,0,2.163,2.163,0,0,1-.063.518h1.75a3.948,3.948,0,0,0,.035-.518A3.861,3.861,0,0,0,291.482,144.519Z" transform="translate(-268.326 -139.867)" fill="#d9acfc"/>
      <g id="Group_15" data-name="Group 15" transform="translate(19.312 4.652)">
        <path id="Path_41" data-name="Path 41" d="M289.574,147.47a3.866,3.866,0,0,1,2.823-2.84,3.818,3.818,0,0,0-.91-.11,3.861,3.861,0,0,0-3.844,3.878,3.942,3.942,0,0,0,.035.518h1.751a2.163,2.163,0,0,1,.146-1.445Z" transform="translate(-287.643 -144.519)" fill="#bf75fa"/>
      </g>
    </g>
    <g id="Ellipse_2" data-name="Ellipse 2" transform="translate(136.901 122.103)" fill="#e5c7fd" stroke="#e5c7fd" stroke-width="8">
      <circle cx="9" cy="9" r="9" stroke="none"/>
      <circle cx="9" cy="9" r="5" fill="none"/>
    </g>
    <g id="Group_20" data-name="Group 20" transform="translate(139.706 122.393)">
      <path id="Path_42" data-name="Path 42" d="M353.676,53.575h-1.192L352,53.09,352.007,40l3.817.675a.3.3,0,0,1,.246.349l-2.1,12.3a.3.3,0,0,1-.3.251Z" transform="translate(-342.061 -39.563)" fill="#bf75fa"/>
      <path id="Path_43" data-name="Path 43" d="M352.007,40,352,53.09l.485.485h.485V40.17Z" transform="translate(-342.061 -39.563)" fill="#cc90fb"/>
      <path id="Path_44" data-name="Path 44" d="M1.688,0H8.61A1.688,1.688,0,0,1,10.3,1.688V12.324A1.688,1.688,0,0,1,8.61,14.012H1.688A1.688,1.688,0,0,1,0,12.324V1.688A1.688,1.688,0,0,1,1.688,0Z" transform="translate(0 0)" fill="#b359f9"/>
      <rect id="Rectangle_1" data-name="Rectangle 1" width="2.676" height="2.485" rx="1.242" transform="translate(1.147 6.8)" fill="#f2e3fe"/>
      <rect id="Rectangle_2" data-name="Rectangle 2" width="2.676" height="2.485" rx="1.242" transform="translate(1.147 10.623)" fill="#f2e3fe"/>
      <g id="Group_18" data-name="Group 18" transform="translate(1.768 6.825)">
        <path id="Path_45" data-name="Path 45" d="M83.242,252.894a.242.242,0,0,1-.171-.07l-.727-.727.343-.343.542.542,1.284-1.5.368.316-1.454,1.7a.242.242,0,0,1-.175.084Z" transform="translate(-82.343 -250.797)" fill="#cc90fb"/>
        <path id="Path_46" data-name="Path 46" d="M83.242,372.893a.242.242,0,0,1-.171-.07l-.727-.727.343-.343.542.542,1.284-1.5.368.316-1.454,1.7a.242.242,0,0,1-.175.084Z" transform="translate(-82.343 -367.16)" fill="#cc90fb"/>
        <g id="Group_17" data-name="Group 17" transform="translate(3.08 3.551)">
          <path id="Path_47" data-name="Path 47" d="M184,368h3.636v.485H184Z" transform="translate(-184 -368)" fill="#f2e3fe"/>
          <path id="Path_48" data-name="Path 48" d="M184,408h1.212v.485H184Z" transform="translate(-184 -406.788)" fill="#f2e3fe"/>
        </g>
      </g>
      <g id="Group_19" data-name="Group 19" transform="translate(0.97 0.679)">
        <path id="Path_49" data-name="Path 49" d="M240,408h1.939v.485H240Z" transform="translate(-234.424 -397.091)" fill="#f2e3fe"/>
        <path id="Path_50" data-name="Path 50" d="M184,248h3.636v.485H184Z" transform="translate(-180.121 -241.94)" fill="#f2e3fe"/>
        <path id="Path_51" data-name="Path 51" d="M184,288h1.212v.485H184Z" transform="translate(-180.121 -280.728)" fill="#f2e3fe"/>
        <path id="Path_52" data-name="Path 52" d="M240,288h1.939v.485H240Z" transform="translate(-234.424 -280.728)" fill="#f2e3fe"/>
        <path id="Path_53" data-name="Path 53" d="M130.179,56,128,56.971l.182,1.153a3.727,3.727,0,0,0,1.471,2.337l.529.389.5-.366a3.725,3.725,0,0,0,1.49-2.35l.183-1.162Zm-.074,3.082a.242.242,0,0,1-.343,0l-.727-.727.343-.343.557.555,1.284-1.284.343.343Z" transform="translate(-125.818 -55.758)" fill="#f2e3fe"/>
        <path id="Path_54" data-name="Path 54" d="M56,48h1.455v.485H56Z" transform="translate(-56 -48)" fill="#f2e3fe"/>
        <path id="Path_55" data-name="Path 55" d="M56,80h.97v.485H56Z" transform="translate(-56 -79.03)" fill="#f2e3fe"/>
        <path id="Path_56" data-name="Path 56" d="M296,48h.485v.485H296Z" transform="translate(-288.728 -48)" fill="#f2e3fe"/>
        <path id="Path_57" data-name="Path 57" d="M328,48h.485v.485H328Z" transform="translate(-319.758 -48)" fill="#f2e3fe"/>
      </g>
    </g>
  </g>
</svg>
