<svg xmlns="http://www.w3.org/2000/svg" width="160.148" height="205.671" viewBox="0 0 160.148 205.671"><g transform="translate(-127 -104)"><path d="M190.989,180.214h0a43.648,43.648,0,0,0-43.648,43.648v57.28h87.3v-57.28A43.648,43.648,0,0,0,190.989,180.214Z" transform="translate(16.085 -3.822)" fill="#e86c6f"/><path d="M200.143,181.178a43.824,43.824,0,0,0-9.154-.964h0a43.648,43.648,0,0,0-43.648,43.648v57.28h18.307v-57.28A43.662,43.662,0,0,1,200.143,181.178Z" transform="translate(16.085 -3.822)" fill="#e65a5e"/><rect width="12.796" height="26.259" transform="translate(200.209 251.059)" fill="#c4000a"/><path d="M230.45,418.671v16.964H126.02V418.671a3.261,3.261,0,0,1,3.261-3.261h97.908A3.261,3.261,0,0,1,230.45,418.671Z" transform="translate(28.841 -144.539)" fill="#fceced"/><path d="M134.769,415.41v20.226h-8.75V418.671a3.261,3.261,0,0,1,3.261-3.261Z" transform="translate(28.841 -144.539)" fill="#f9dadb"/><path d="M226.018,455.663v17.418a3.261,3.261,0,0,1-3.261,3.261h-116a3.261,3.261,0,0,1-3.261-3.261V455.663a3.261,3.261,0,0,1,3.261-3.261h116A3.262,3.262,0,0,1,226.018,455.663Z" transform="translate(42.317 -166.672)" fill="#caedff"/><path d="M112.542,452.4v23.941h-5.787a3.261,3.261,0,0,1-3.261-3.261V455.663a3.261,3.261,0,0,1,3.261-3.261Z" transform="translate(42.318 -166.672)" fill="#76c2e0"/><path d="M251.445,58.223a3.057,3.057,0,0,1-3.057-3.057V3.057a3.058,3.058,0,0,1,6.115,0V55.165A3.057,3.057,0,0,1,251.445,58.223Z" transform="translate(-44.372 104)" fill="#e65a5e"/><path d="M168.13,78.163a3.057,3.057,0,0,1-2.675-1.571l-25.341-45.53a3.058,3.058,0,0,1,5.343-2.974L170.8,73.618a3.058,3.058,0,0,1-2.669,4.545Z" transform="translate(20.639 88.135)" fill="#e65a5e"/><path d="M105.756,133.97a3.041,3.041,0,0,1-1.429-.357L58.289,109.206a3.057,3.057,0,0,1,2.864-5.4l46.038,24.407a3.058,3.058,0,0,1-1.435,5.76Z" transform="translate(70.337 42.108)" fill="#e65a5e"/><path d="M297.015,78.163a3.058,3.058,0,0,1-2.669-4.545l25.341-45.53a3.058,3.058,0,0,1,5.343,2.974L299.69,76.592A3.056,3.056,0,0,1,297.015,78.163Z" transform="translate(-71.637 88.135)" fill="#e65a5e"/><path d="M328.564,133.971a3.058,3.058,0,0,1-1.434-5.76L373.167,103.8a3.057,3.057,0,0,1,2.864,5.4l-46.038,24.407A3.043,3.043,0,0,1,328.564,133.971Z" transform="translate(-90.509 42.108)" fill="#e65a5e"/><circle cx="15.479" cy="15.479" r="15.479" transform="translate(191.125 226.855)" fill="#f6c8c9"/></g></svg>