<?xml version="1.0" encoding="utf-8"?>
<!-- Generator: Adobe Illustrator 25.2.1, SVG Export Plug-In . SVG Version: 6.00 Build 0)  -->
<svg version="1.2" baseProfile="tiny" id="Layer_1" xmlns="http://www.w3.org/2000/svg" xmlns:xlink="http://www.w3.org/1999/xlink"
	 x="0px" y="0px" viewBox="0 0 390.2 397.3" overflow="visible" xml:space="preserve">
<g>
	<path fill="#2A80BA" d="M165,390.2c-5.1-2.3-9.1-5.4-10.1-11.4c-0.4-2.4,0.1-4.7,0.7-7c2.7-10.1,5.4-20.2,8.1-30.3
		c0.3-1.2,0.9-2.3,0.4-3.6c-1.5-0.1-2.5,1.1-3.6,1.8c-8.1,5.4-16.1,10.8-24.2,16.2c-7,4.6-15.1,3.3-19.4-3.1
		c-4.3-6.4-2.4-14.4,4.6-19.1c17-11.5,34.1-22.9,51.2-34.3c2-1.3,3.1-2.9,3.7-5.2c4.5-17,9.1-33.9,13.6-50.8
		c0.6-2.1,1.5-3.8,3.1-5.4c13.7-13.6,27.3-27.3,41-41c1.5-1.5,3-2.4,5.1-2.9c17.1-4.5,34.1-9.2,51.2-13.7c2.4-0.6,3.9-1.8,5.2-3.8
		c11.5-17.2,23-34.3,34.5-51.5c3.4-5.1,8-7.4,14.1-6.2c5.6,1,9,4.6,10.4,10c1.1,4,0,7.6-2.2,11c-5.5,8.2-10.9,16.3-16.4,24.5
		c-0.7,1.1-1.8,2.1-2,3.6c1.2,0.8,2.4,0.1,3.5-0.2c10.2-2.7,20.4-5.5,30.6-8.2c8.6-2.3,15.8,1.5,17.8,9.4
		c1.9,7.3-2.5,14.1-10.8,16.4c-11.4,3.1-22.8,6.1-34.2,9.2c0.3,1.5,1.6,1.6,2.6,2c9.5,4.7,19,9.3,28.4,14.1c5.3,2.7,7.6,7.4,7,13.3
		c-0.6,5.5-3.7,9.1-8.8,11c-3.8,1.4-7.5,0.8-11.2-1c-18.4-9.1-36.8-18.1-55.2-27.2c-2.1-1.1-4-1.3-6.4-0.6
		c-19.8,5.4-39.6,10.7-59.4,15.9c0.2,1.4,1.3,2,2.1,2.8c13.7,13.8,27.5,27.5,41.2,41.3c1.6,1.6,3.2,2.4,5.5,2.6
		c16.7,1.1,33.3,2.2,49.9,3.4c4.2,0.3,8.5,0.5,12.7,0.8c7.7,0.7,13,6.8,12.5,14.5c-0.5,7-6.5,12.6-14,12.2
		c-8.7-0.4-17.4-1.2-26.1-1.7c-2.7-0.2-5.4-0.3-8.2-0.5c0.1,1.7,1.4,2.3,2.2,3.1c7.8,7.9,15.7,15.6,23.5,23.6
		c4.3,4.4,5.2,10.3,2.6,15.5c-2.5,5-7.8,7.9-13.6,7.3c-3.5-0.4-6.3-2.2-8.7-4.6c-8.2-8.2-16.4-16.4-24.6-24.6
		c-0.2-0.2-0.4-0.3-1-0.6c0,2.3-0.1,4.5,0,6.6c0.6,8.8,1.3,17.6,1.9,26.5c0.6,8.7-4.6,15.2-12.3,15.6c-8.4,0.4-13.9-5.1-14.4-14.1
		c-1.3-20.6-2.8-41.2-4.2-61.9c-0.1-1.4-0.3-2.6-1.4-3.7c-14.8-14.8-29.6-29.6-44.9-44.8c-1,3.7-1.9,6.9-2.8,10.2
		c-4.5,16.7-8.9,33.4-13.5,50.1c-0.6,2.1-0.4,3.8,0.6,5.7c9,18.3,18,36.6,27.1,54.9c1.9,3.8,2.9,7.7,1.4,11.9
		c-1.9,5.1-5.5,8.3-11,8.9c-6,0.6-10.8-1.8-13.6-7.3c-4.7-9.3-9.3-18.7-13.9-28.1c-0.4-0.9-0.9-1.7-1.7-3.1c-0.5,1.4-1,2.3-1.2,3.3
		c-2.5,9.2-5.3,18.4-7.3,27.8c-1.5,6.7-4.3,12-10.7,14.9C169.5,390.2,167.3,390.2,165,390.2z"/>
	<path fill="#FE5364" d="M3.6,374.5c1.1-3.7,3.5-6.5,6.2-9.1c117.4-117.3,234.7-234.6,352-352c3.3-3.3,6.7-6.2,11.9-6
		c5.3,0.2,9.1,2.6,11.3,7.2c2.4,4.7,1.9,9.4-1.2,13.7c-0.9,1.3-2.2,2.4-3.3,3.5C263,149.4,145.5,266.9,28,384.5
		c-2.4,2.4-5.1,4.2-8,5.8c-2.5,0-5,0-7.5,0c-4.1-2.9-7.9-5.9-9-11.2C3.6,377.5,3.6,376,3.6,374.5z"/>
	<path fill="#F2D55C" d="M3.6,171.9c2.2-3.4,5-4.3,9.1-3.9c19.1,1.8,38.1,3.2,57.2,4.7c5.2,0.4,7.4,2.6,7.5,7.8c0.1,3,0,6,0,9
		c0,6.8-1.9,8.8-8.8,9.3c-5.6,0.4-11.1,0.9-16.7,1.4c-13.3,1.1-26.5,2.1-39.8,3.2c-3.7,0.3-6.6-0.7-8.6-3.8
		C3.6,190.4,3.6,181.2,3.6,171.9z"/>
	<path fill="#FEF6F7" d="M3.6,379c1,5.3,4.9,8.3,9,11.2c-3,0-7.1,1.2-8.6-0.3c-1.5-1.5-0.3-5.7-0.3-8.6C3.6,380.5,3.6,379.8,3.6,379
		z"/>
	<path fill="#EFC41B" d="M115.7,192.1c0.1-43.2,34.2-75.2,73.8-72.4c11.6,0.8,22.4,4.3,32.3,10.5c2.2,1.4,2.3,2.2,0.4,4
		c-30.7,30.6-61.3,61.2-91.9,91.9c-2.2,2.2-2.9,1.4-4.2-0.7C119.2,214.2,115.8,201.9,115.7,192.1z"/>
	<path fill="#F2D55C" d="M181.8,7.5c3.5,0,7,0,10.5,0c5.1,0,7.5,2.3,7.2,7.3c-0.7,10.8-1.6,21.6-2.5,32.3c-0.7,8.2-1.5,16.3-2,24.5
		c-0.5,7.9-2.3,9.7-10.3,9.7c-2.9,0-5.7,0.1-8.6,0c-4.4-0.2-6.8-2.3-7.2-6.5c-1.1-12.7-2.1-25.5-3.1-38.3
		c-0.6-7.1-1.1-14.1-1.8-21.2c-0.5-5,1.9-7.8,7-7.9C174.6,7.4,178.2,7.5,181.8,7.5z"/>
	<path fill="#F2D55C" d="M105.6,24.7c3.4,0.1,5.2,1.9,6.4,4.6c7.7,16.4,15.4,32.9,23.2,49.3c4.8,10.1,4.6,10.8-5,16.3
		c-2.1,1.2-4.1,2.4-6.2,3.5c-3.6,1.8-6.2,1.4-8.5-1.9C103.8,79.7,92.2,63,80.7,46.2c-2.2-3.2-1.8-6.5,1.4-8.5
		c7.1-4.4,14.4-8.4,21.6-12.5C104.3,24.8,105.1,24.8,105.6,24.7z"/>
	<path fill="#F2D55C" d="M284,42.8c0.1,1.4-0.7,2.8-1.6,4.1c-11.3,16.3-22.7,32.7-34,49c-2.6,3.7-5.5,4.3-9.3,2.2
		c-3.3-1.9-6.7-3.8-10-5.9c-4-2.5-4.8-4.7-2.9-9.1c4.6-10.1,9.3-20.1,14-30.1c3.7-7.9,7.4-15.7,11.1-23.6c2.4-5,5.8-6.1,10.6-3.3
		c6,3.5,12.1,7,18.1,10.4C282.3,37.9,283.9,39.6,284,42.8z"/>
	<path fill="#F2D55C" d="M38.8,83.3c1.7,0.2,3.1,0.9,4.4,1.9C59.5,96.4,75.7,107.7,92,119c3.8,2.7,4.4,5.2,2.2,9.3
		c-1.8,3.3-3.7,6.5-5.6,9.7c-2.6,4.4-5.4,5.2-10,3.1c-15.3-7.2-30.6-14.4-45.9-21.7c-2.6-1.2-5.2-2.4-7.8-3.6
		c-4.3-2.1-5.4-5.4-3.2-9.5c3.6-6.4,7.3-12.7,11-19.1C34.2,84.9,36,83.4,38.8,83.3z"/>
	<path fill="#F2D55C" d="M38.9,287.9c-3,0-4.8-1.4-6-3.6c-3.8-6.4-7.5-12.9-11.2-19.4c-2-3.6-0.9-7.3,2.9-9.1
		c17.9-8.5,35.7-16.9,53.6-25.3c5.5-2.6,7.6-1.8,10.8,3.4c1.9,3.1,3.7,6.2,5.4,9.4c1.9,3.5,1.3,6.5-2,8.8
		c-16.5,11.5-33.1,23-49.7,34.5C41.5,287.3,40.2,288,38.9,287.9z"/>
</g>
</svg>
