<svg enable-background="new 0 0 75 75" viewBox="0 0 75 75" xmlns="http://www.w3.org/2000/svg"><path d="m44.8 37.6c.2.2.4.4.4.6.1 1.2 1.1 1.5 1.9 1.9.2.1.4.2.6.4-.7 3.8-1.4 7.7-2.1 11.5-2.1 0-4.3-.1-6.4 0-1.1.1-1.5-.5-1.5-1.5 0-2.2.1-4.4.1-6.7 0-.1.1-.2.1-.5 2.2.8 3.7 2.5 5.3 4.2 0-.2.1-.3.1-.3-1.2-2-2.7-3.5-4.9-4.2-.2-.1-.4-.3-.6-.4.6-.4 1.2-.9 1.9-1.3.9-.6 1.8-1.1 2.7-1.6.9-.7 1.6-1.4 2.4-2.1zm-5.8 5.1c2 .8 3.7 1.9 4.8 4 .2-.9.4-1.6.6-2.3-1-.6-1.9-1.1-2.7-1.7-.9-.7-1.7-.7-2.7 0z" fill="#1c3a49"/><path d="m11.5 60.1c.3-1.6.6-3.2 1-4.8h8.6v13c-.9-.4-1.8-.9-2.7-1.3-1.1-.8-2.3-1.5-3.4-2.3-.8-.7-1.6-1.3-2.5-2-.6-.7-.9-1.6-1-2.6z" fill="#132e3c"/><path d="m27.7 40.8c.1-.1.2-.2.3-.2 1-.3 1.8-.9 1.8-2.1 0-.3.3-.7.5-1 .6.6 1.3 1.1 1.9 1.7.6.4 1.1.8 1.6 1.2.4.2.7.4 1.1.6l2.4 1.5c-.6.3-1.2.6-1.8 1-1.6.9-3 2.1-3.8 3.9 0 .1-.1.1-.1.2h.1c0-.1.1-.1.1-.2.2-.2.5-.3.7-.5l2.1-2.1c.6-.5 1.3-1 1.9-1.4.6-.3.8-.2.8.5.1 2.4.1 4.9.1 7.3 0 .9-.2 1.1-1.1 1.1-2.2 0-4.4-.1-6.6-.1-.3-1.5-.7-3.1-1-4.6-.3-2.2-.6-4.5-1-6.8zm8.6 1.9c-1.8-.8-1.8-.8-3.3.1-.6.4-1.2.7-1.7 1.1-.2.2-.4.5-.4.7.1.6.3 1.3.5 1.9 1.2-1.9 2.9-2.9 4.9-3.8z" fill="#1c3a49"/><path d="m42.5 2.3c1.3.4 2.5 1.2 3.4 2.2v11.3c.6-.1 1-.1 1.6-.2v2c-.4.6-1 .6-1.6.6-2.9 0-5.9 0-8.9 0 0-.2 0-.3 0-.5 0-1.1 0-1-1-1.1s-1.9-.2-2.9-.3c0-.7 0-1.3 0-2 .3-.1.6-.1.8-.2.9-.5 1.8-1 2.8-1.5 1.7-.9 3.4-1.8 5.1-2.7v3c0 .5-.1 1-.7 1.3s-1.2.6-1.7.9c-.7.4-1.4.8-2.1 1.2 0 .1.1.2.1.3 1.1-.1 2.3-.1 3.4-.2.5 0 1.3 0 1.5-.3.3-.4.1-1.1.1-1.6.1-4 .1-8.1.1-12.2z" fill="#edd866"/><path d="m54.7 44c1.5.8 3 1.5 4.5 2.3s2.6 2.1 3 3.8c.5 2 .8 4.1 1.2 6.1-.9.1-1.8.1-2.7.1-2 0-4 0-6 0 0-.7-.1-1.5-.1-2.3 0-1.7.1-3.5.1-5.2 0-1.6 0-3.2 0-4.8z" fill="#1c3a49"/><path d="m54.7 56.3h6c.9 0 1.8-.1 2.7-.1.2 1.1.4 2.2.6 3.3.1.3-.1.7-.1 1-.4.6-.7 1.3-1.1 1.9-.8.7-1.6 1.3-2.4 2-1.1.8-2.2 1.5-3.3 2.3-.8.4-1.7.8-2.5 1.2.1-3.9.1-7.7.1-11.6z" fill="#132e3c"/><path d="m41.8 10c-1.7.9-3.4 1.8-5.1 2.7-.9.5-1.8 1-2.8 1.5-.2.1-.5.1-.8.2 0-2.8.1-5.7.1-8.5 2.8-1.5 5.5-2.9 8.3-4.4.1.2.2.4.3.6z" fill="#f4e091"/><path d="m27.7 40.8c.4 2.3.7 4.5 1.1 6.8.3 1.6.7 3.1 1 4.6.4 2.1.9 4.3 1.3 6.4-.8 0-1.6 0-2.4 0-.6 0-.9.4-.8 1 .2 1.5.5 3 .7 4.5 0 .2-.1.7-.3.7-.8.1-1.6.1-2.5.2-.2-1-.3-2-.4-2.9-.3-2-.5-4-.8-6 .8-.1 1.5-.2 2.3-.3.4 0 .6-.2.6-.6-.2-1.4-.4-2.8-.6-4.2-.1-.5-.2-.9-.3-1.4-.3-2.6-.6-5.2-1-7.8.7-.3 1.4-.6 2.1-1z" fill="#d9c138"/><path d="m21.1 55.3c-2.9 0-5.7 0-8.6 0 .3-1.8.6-3.6 1.1-5.3.4-1.7 1.5-2.9 3-3.7 1.5-.7 3-1.5 4.5-2.2 0 3.2.1 6.5.1 9.7-.1.5-.1 1-.1 1.5z" fill="#1c3a49"/><path d="m62.8 62.5c.4-.6.7-1.3 1.1-1.9.2.2.5.3.5.5.5 2.2.1 4.2-1.3 6-1.5 1.9-3.4 3.2-5.5 4.2-1.7.8-3.5 1.6-5.3 2.1-2.6.7-5.2 1.2-7.8 1.5-2.7.3-5.4.5-8.1.5-3.8-.1-7.6-.5-11.3-1.4-3.8-.9-7.4-2.3-10.6-4.6-1.8-1.3-3.3-2.9-3.7-5.2-.2-1.2-.2-2.4.3-3.5.1-.2.3-.4.5-.6.1 1 .4 1.9 1 2.7-.5.7-.1 1.4.1 2 .7 2 2.1 3.4 3.8 4.6 2.6 1.8 5.4 3 8.4 3.7 4.6 1.2 9.2 1.7 14 1.5 3-.1 6-.4 9-1 4.4-.8 8.5-2.3 12-5.1 1.2-1 2.4-2.2 2.8-3.8.2-.7.1-1.5.1-2.2z" fill="#e4e5e6"/><path d="m49.4 21.2c1 1.3.8 2.7.5 4.1-.3 1.2-1.1 2.2-2 3-.2.2-.5.5-.6.8-.6 1.1-1.1 2.2-1.8 3.3-.5.7-.7 1.4-.6 2.2.1.7 0 1.4 0 2.1-.3-.4-.6-.7-.8-1.1-.2-.3-.3-.5-.7-.3-.6.5-1.1 1-1.6 1.5-2.2 1.8-4.9 2-7.5.6-.5-.3-.9-.7-1.4-1.1-.3-.3-.6-.7-.9-1-.5-.6-.7-.2-1 .2-.1.2-.3.4-.5.6.2-1.9-.2-3.6-1.4-5.1-.2-.2-.3-.5-.4-.8-.5-1-1-1.8-1.8-2.6-1.5-1.4-1.9-3.2-1.6-5.2.1-.7.4-1.2 1.1-1.5.3.1.6.3 1 .5.1.5.1 1.1.2 1.7 0 .2.2.4.3.6.1-.2.3-.3.4-.5.1-.3.2-.6.3-.9l.5.5v.5c-.1.2-.1.3-.2.5 0 1.4-.1 2.9.5 4.3.1.3.2.7.3 1 0 .2-.2.3-.1.5.7 1.6.8 3.4 2.1 4.8.6.6 1.2 1.2 1.8 1.9 1.6 1.8 3.7 1.9 5.8 1.6 1.5-.2 2.4-1.4 3.5-2.3 1.5-1.3 2.3-3.1 2.8-5 .7-2.3 1.1-4.7 1-7.2 0-.3.2-.5.3-.8.1.3.2.5.3.8.1.2.3.3.4.5.1-.2.3-.3.3-.5.1-.5.1-1 0-1.5 0-.5.2-.6.7-.6.2-.1.5-.1.8-.1z" fill="#d28f5c"/><path d="m28.6 5.3c1-1.4 2.3-2.4 3.9-3v14c-1.2-.2-2.4-.5-3.6-.7 0-2.8 0-5.6 0-8.4 0-.7-.2-1.3-.3-1.9z" fill="#edd866"/><path d="m45.7 52c.7-3.8 1.4-7.7 2.1-11.5.8.4 1.5.8 2.3 1.2-.2 1.9-.5 3.7-.7 5.5-.2 1.3-.3 2.6-.5 3.9-.2 1-.3 2-.5 3-1 0-2 0-3 0 .1-.7.2-1.4.3-2.1z" fill="#d9c138"/><path d="m48.9 51.1c.2-1.3.3-2.6.5-3.9.2-1.9.5-3.7.7-5.5 1 .5 1.9 1 2.8 1.5-.1.7-.2 1.5-.3 2.2-.3 2-.6 4.1-.9 6.1-.9-.2-1.8-.3-2.8-.4z" fill="#f4e091"/><path d="m51.7 51.4c.3-2 .6-4.1.9-6.1.1-.7.2-1.5.3-2.2l1.8.9v4.9c0 1.7-.1 3.5-.1 5.2-1.1-.1-2.1-.1-3.2-.1.1-.9.2-1.8.3-2.6z" fill="#d9c138"/><path d="m25.6 41.9c.3 2.6.6 5.2 1 7.8.1.5.2.9.3 1.4-.9.2-1.9.3-2.8.5-.4-2.8-.8-5.5-1.2-8.3.8-.5 1.7-1 2.7-1.4z" fill="#f4e091"/><path d="m22.8 43.3c.4 2.8.8 5.5 1.2 8.3.1.8.2 1.5.3 2.3-1.1 0-2.1 0-3.2 0 0-3.2-.1-6.5-.1-9.7.6-.4 1.2-.7 1.8-.9z" fill="#d9c138"/><path d="m41.6 1.4c-2.8 1.5-5.5 2.9-8.3 4.4-.1-.2-.1-.5-.1-.7 0-1 0-2 0-3.1.2-.8.7-1.3 1.5-1.4 1.9-.2 3.9-.5 5.8.1.4.1.7.4 1.1.7z" fill="#edd866"/><path d="m47.5 17.5c0-.6 0-1.3 0-2-.6.1-1.1.1-1.6.2 0-3.8 0-7.5 0-11.3 1 .9 1.8 2.1 2.3 3.3-.1.4-.2.6-.2.9v4.9 1.7c.5-.1 1-.1 1.4-.1-.6.8-1.2 1.6-1.9 2.4z" fill="#d9c138"/><path d="m47.5 17.5c.6-.8 1.2-1.6 1.9-2.4l.2-.1c-.1 2.1-.2 4.1-.2 6.2-.3 0-.6 0-.8 0-.4 0-.7.1-.7.6v1.5c0 .2-.2.3-.3.5-.1-.1-.3-.3-.4-.5s-.2-.5-.3-.8c-.1-.5-.3-1.1-.4-1.6-.2-.9-.3-1.9-.5-2.8.5 0 1.2 0 1.5-.6z" fill="#6c372d"/><path d="m28.5 22.4c-.1.3-.2.6-.3.9-.1.2-.3.3-.4.5-.1-.2-.3-.4-.3-.6-.1-.6-.1-1.2-.2-1.7-.4-.2-.7-.3-1-.5-.3-2-.5-4-.2-6h.3c.4.6.8 1.1 1.2 1.7.6.9 1.4 1.5 2.5 1.4-.6 1.5-1.1 2.9-1.6 4.3z" fill="#6c372d"/><g fill="#d9c138"><path d="m28.6 5.3c.1.6.3 1.3.3 1.9v8.4c-.6-.1-1.1-.2-1.7-.4.1-2.3.1-4.5.1-6.8 0-.1-.2-.3-.3-.4.6-.9 1.1-1.8 1.6-2.7z"/><path d="m41.8 10c0-2.7 0-5.3 0-8 .2.1.4.2.6.3v12.3c0 .6.2 1.2-.1 1.6-.2.3-1 .2-1.5.3-1.1.1-2.3.1-3.4.2 0-.1-.1-.2-.1-.3.7-.4 1.4-.8 2.1-1.2.6-.3 1.1-.6 1.7-.9s.6-.8.7-1.3c0-1.1 0-2 0-3z"/><path d="m33.1 2v3.1c0 .2.1.5.1.7 0 2.8-.1 5.7-.1 8.5v2c-.2 0-.4 0-.6 0 0-4.7 0-9.3 0-14 .2-.1.4-.2.6-.3z"/></g><path d="m49.6 15c-.1 0-.1 0-.2.1-.4 0-.9.1-1.4.1 0-.6 0-1.1 0-1.7 0-1.6 0-3.3 0-4.9 0-.3.1-.5.2-.8 1 2.3 1.6 4.7 1.4 7.2z" fill="#bead25"/><path d="m41.7 36.8c.5-.5 1.1-1 1.6-1.5.3-.3.5-.1.7.3s.5.8.8 1.1c0 .3 0 .6.1.9-.8.7-1.6 1.4-2.4 2.1 0-.3-.1-.5-.1-.8-.1-.7 0-1.5-.7-2.1z" fill="#dd9d70"/><path d="m27.1 8c.1.1.3.3.3.4 0 2.3-.1 4.5-.1 6.8-.3 0-.6-.1-.9-.1-.1-.1-.2-.1-.3-.2-.2-2.4.1-4.7 1-6.9z" fill="#bead25"/><path d="m30.4 36.2c.2-.2.4-.4.5-.6.3-.5.5-.8 1-.2.3.3.6.7.9 1-.6.9-.6 1.9-.6 2.9-.6-.6-1.3-1.1-1.9-1.7.1-.5.1-.9.1-1.4z" fill="#dd9d70"/><path d="m26.1 14.9c.1.1.2.1.3.2-.1 0-.2 0-.3 0 0-.1 0-.1 0-.2z" fill="#f4e091"/><path d="m45.7 52c-.1.7-.2 1.4-.3 2.1-.9 3.6-1.6 7.2-2.7 10.7-.7 2.5-1.7 4.8-2.6 7.2-1.6 0-3.1 0-4.7 0-1-2.5-2-4.9-2.8-7.5-.6-1.9-1-3.9-1.5-5.9-.4-2.1-.9-4.3-1.3-6.4 2.2.1 4.4.1 6.6.1.9 0 1.1-.2 1.1-1.1 0-2.4-.1-4.9-.1-7.3 0-.6-.3-.8-.8-.5-.7.4-1.3.9-1.9 1.4-.7.7-1.4 1.4-2.1 2.1-.2.2-.4.3-.7.5.8-1.7 2.1-3 3.8-3.9.6-.3 1.2-.6 1.8-1h.6c.2.1.4.3.6.4 2.2.8 3.8 2.3 4.9 4.2 0 0 0 .1-.1.3-1.6-1.7-3.1-3.4-5.3-4.2-.1.3-.1.4-.1.5-.1 2.2-.1 4.4-.1 6.7 0 1.1.3 1.6 1.5 1.5 1.9 0 4.1.1 6.2.1z" fill="#132e3c"/><path d="m37.9 42.6c-.2 0-.4 0-.6 0-.8-.5-1.6-1-2.4-1.5-.3-.2-.7-.4-1.1-.6 0-.4-.1-.8-.1-1.2 0-.6-.2-1.3.4-1.8 2.6 1.4 5.3 1.2 7.5-.6.7.5.6 1.4.7 2.1 0 .3.1.5.1.8-.9.5-1.8 1.1-2.7 1.6-.5.3-1.2.8-1.8 1.2z" fill="#eeb393"/><path d="m39 42.7c1-.6 1.8-.7 2.7 0 .8.7 1.7 1.1 2.7 1.7-.2.7-.3 1.3-.6 2.3-1.1-2.1-2.8-3.2-4.8-4z" fill="#515152"/><path d="m31.1 58.7c.5 2 .8 3.9 1.5 5.9.8 2.5 1.9 5 2.8 7.5-.2 0-.4-.1-.6-.1-2.5-.4-5-.7-7.5-1.3-2.1-.6-4.2-1.5-6.3-2.4 0-4.3 0-8.7 0-13 0-.5 0-1 .1-1.5h3.2c.1.8.2 1.6.3 2.4.3 2 .5 4 .8 6 .1.9.3 1.9.4 2.9.8-.1 1.7-.1 2.5-.2.1 0 .3-.5.3-.7-.2-1.5-.5-3-.7-4.5-.1-.6.2-.9.8-1z" fill="#bead25"/><path d="m62.8 62.5c-.1.7 0 1.5-.2 2.2-.5 1.6-1.6 2.8-2.8 3.8-3.5 2.8-7.7 4.2-12 5.1-3 .6-6 .9-9 1-4.7.1-9.4-.4-14-1.5-3-.8-5.8-2-8.4-3.7-1.7-1.2-3.2-2.5-3.8-4.6-.2-.6-.6-1.3-.1-2 .8.7 1.6 1.3 2.5 2 .2.4.2.9.5 1.2 1.2 1.8 2.9 3 4.8 4 2.7 1.4 5.5 2.2 8.5 2.7 3.9.7 7.8 1 11.7.7 3.2-.2 6.4-.7 9.5-1.5 3.4-1 6.7-2.4 9.1-5.1.6-.7 1.2-1.4 1.3-2.4.8-.6 1.6-1.3 2.4-1.9z" fill="#c8c9cb"/><path d="m60.4 64.4c-.1 1-.7 1.7-1.3 2.4-2.5 2.7-5.7 4.1-9.1 5.1-3.1.9-6.3 1.4-9.5 1.5-3.9.2-7.8-.1-11.7-.7-3-.5-5.8-1.4-8.5-2.7-1.9-1-3.6-2.2-4.8-4-.2-.3-.3-.8-.5-1.2 1.1.8 2.3 1.5 3.4 2.3.2.3.3.7.6.9 1 .7 2.1 1.4 3.2 1.9 2.1 1 4.4 1.7 6.7 2.1 2.1.3 4.2.7 6.4.8 2.3.1 4.5.2 6.8-.1 2.4-.3 4.7-.9 7-1.4 2.6-.6 4.9-1.7 7-3.2.5-.3.8-.9 1.1-1.3 1-.9 2.1-1.6 3.2-2.4z" fill="#b0b2b4"/><path d="m57.1 66.7c-.4.4-.7 1-1.1 1.3-2.1 1.5-4.4 2.7-7 3.2-2.3.5-4.6 1.1-7 1.4-2.2.2-4.5.2-6.8.1-2.1-.1-4.3-.4-6.4-.8-2.3-.4-4.6-1.1-6.7-2.1-1.1-.5-2.1-1.2-3.2-1.9-.3-.2-.4-.6-.6-.9l2.7 1.3c2.1.8 4.1 1.8 6.3 2.4 2.4.6 5 .9 7.5 1.3.2 0 .4.1.6.1 1.6 0 3.1-.1 4.7-.1 3.7-.1 7.3-1 10.8-2.3 1.3-.5 2.5-1.2 3.8-1.7.8-.5 1.6-.9 2.4-1.3z" fill="#9e9fa2"/><path d="m36.3 42.7c-2 .9-3.7 1.9-4.9 3.9-.2-.6-.4-1.2-.5-1.9 0-.2.2-.6.4-.7.5-.4 1.1-.7 1.7-1.1 1.5-1.1 1.5-1.1 3.3-.2z" fill="#515152"/><path d="m34.2 37.4c-.6.5-.4 1.2-.4 1.8 0 .4.1.8.1 1.2-.6-.4-1.1-.8-1.6-1.2 0-1-.1-2 .6-2.9.4.4.8.8 1.3 1.1z" fill="#e6a881"/><path d="m31.8 47.5c0 .1-.1.1-.1.2h-.1c.1-.1.2-.2.2-.2z" fill="#132e3c"/><path d="m28.5 22.4c.5-1.4 1-2.8 1.6-4.2 2.3 0 4.7-.1 7-.1h8.9c.2.9.3 1.9.5 2.8.1.6.3 1.1.4 1.6-.1.3-.3.5-.3.8.1 2.5-.3 4.8-1 7.2-.6 1.9-1.3 3.6-2.8 5-1.1.9-2 2.1-3.5 2.3-2.2.3-4.2.2-5.8-1.6-.6-.7-1.2-1.2-1.8-1.9-1.2-1.4-1.4-3.2-2.1-4.8-.1-.1.1-.3.1-.5.5 1 1 2 1.5 2.9.3.6.7 1.2 1.1 1.7.1 0 .1-.1.2-.1-.5-1.2-1.1-2.4-1.6-3.7-.7-1.6-1.5-3.3-1.5-5.1 0-.3-.3-.7-.4-1 .1-.2.1-.3.2-.5s.2-.3.4-.5c-.1 0-.1-.1-.1-.1-.1.1-.2.1-.2.2-.5-.1-.7-.3-.8-.4zm12.6-3.6c-2.4 0-4.7 0-7 0-.6 0-1.2 0-1.9 0-.1 0-.2.2-.2.3-.3 1.5-.7 3-.7 4.5 0 1.3.3 2.7.6 4 .5 2 1.4 3.8 3.1 5.2.9.7 2 1.2 3.3 1 2.1-.4 3.5-1.9 4.3-3.7 1.7-3.5 1.9-7.1.9-10.8-.1-.2-.1-.5-.2-.5-.9 0-1.5 0-2.2 0z" fill="#dd9d70"/><path d="m37 18.1c-2.3 0-4.7.1-7 .1-1.1.1-1.9-.5-2.5-1.4-.4-.6-.8-1.1-1.2-1.7.3 0 .6.1.9.1l1.7.4c1.2.2 2.4.5 3.6.7h.6c1 .1 1.9.2 2.9.3s1 0 1 1.1z" fill="#f4e091"/><path d="m54.7 67.9c-1.3.6-2.5 1.2-3.8 1.7-3.5 1.3-7 2.2-10.8 2.3.9-2.4 1.9-4.8 2.6-7.2 1-3.5 1.8-7.1 2.7-10.7h3c-.1.8-.2 1.6-.3 2.4-.2 1.9-.6 3.8-.7 5.6-.1 1.1 1 .5 1.5.7.4.1 1 .3 1.3-.3v-.1c.3-1.9.5-3.8.8-5.7.2-1 .3-1.9.5-2.9 1.1.1 2.1.1 3.2.1 0 .7.1 1.5.1 2.3-.1 4.1-.1 7.9-.1 11.8z" fill="#bead25"/><path d="m24.6 56.2c-.1-.8-.2-1.6-.3-2.4s-.2-1.5-.3-2.3c.9-.2 1.9-.3 2.8-.5.2 1.4.4 2.8.6 4.2.1.4-.2.6-.6.6-.7.2-1.5.3-2.2.4z" fill="#edd866"/><path d="m28.8 23.8c.1.3.4.7.4 1 .1 1.9.8 3.5 1.5 5.1.5 1.2 1.1 2.4 1.6 3.7-.1 0-.1.1-.2.1-.4-.6-.7-1.1-1.1-1.7-.5-1-1-1.9-1.5-2.9-.1-.3-.2-.7-.3-1-.5-1.4-.4-2.9-.4-4.3z" fill="#e6a881"/><path d="m28.9 22.9c.1-.1.2-.1.2-.2.1 0 .1.1.1.1-.1.2-.2.3-.4.5.1-.1.1-.3.1-.4z" fill="#e6a881"/><path d="m51.4 53.9c-.2 1-.3 1.9-.5 2.9-1-.1-1.9-.2-2.9-.3.1-.8.2-1.6.3-2.4.2-1 .3-2 .5-3 .9.1 1.9.2 2.8.3 0 .8-.1 1.7-.2 2.5z" fill="#edd866"/><path d="m34 18.8h7c.3 1 .7 2 .9 3.1.5 3 0 5.7-2 8-.7.8-1.6 1.2-2.7 1-1-.2-1.8-.8-2.4-1.6-1.9-2.7-2.1-5.7-1.2-8.8.1-.6.3-1.1.4-1.7z" fill="#eeb393"/><path d="m34 18.8c-.2.6-.3 1.1-.5 1.7-.8 3.1-.7 6.1 1.2 8.8.6.8 1.4 1.4 2.4 1.6 1.1.2 2.1-.2 2.7-1 2-2.3 2.5-5.1 2-8-.2-1-.6-2-.9-3.1.7 0 1.4 0 2 .1.1 0 .2.3.2.5 1.1 3.7.8 7.4-.9 10.8-.9 1.8-2.2 3.3-4.3 3.7-1.3.2-2.3-.2-3.3-1-1.7-1.3-2.6-3.1-3.1-5.2-.3-1.3-.6-2.7-.6-4 0-1.5.4-3 .7-4.5 0-.1.1-.3.2-.3 1-.1 1.6-.1 2.2-.1z" fill="#e6a881"/><path d="m48.1 56.5 2.9.3c-.3 1.9-.5 3.8-.8 5.7v.1c-.3.6-.9.4-1.3.3-.5-.2-1.6.3-1.5-.7.2-2 .5-3.9.7-5.7z" fill="#d9c138"/></svg>